<mxfile host="app.diagrams.net" modified="2024-03-03T16:15:55.712Z" agent="Mozilla/5.0 (X11; Linux x86_64) AppleWebKit/537.36 (KHTML, like Gecko) Chrome/122.0.0.0 Safari/537.36" etag="eCGB-YU1DW60NDkfIx_v" version="24.0.1" type="device" pages="4">
  <diagram name="Client-Server" id="FWi4dexDJomO4eUdd0e8">
    <mxGraphModel dx="2074" dy="1106" grid="0" gridSize="10" guides="1" tooltips="1" connect="1" arrows="1" fold="1" page="1" pageScale="1" pageWidth="1169" pageHeight="827" math="0" shadow="0">
      <root>
        <mxCell id="0" />
        <mxCell id="1" parent="0" />
        <mxCell id="Lw5L4zQjM9W_Kat2M2BK-36" value="&lt;font face=&quot;Atkinson Hyperlegible&quot;&gt;Request&lt;/font&gt;" style="edgeStyle=orthogonalEdgeStyle;rounded=0;orthogonalLoop=1;jettySize=auto;html=1;labelBackgroundColor=none;verticalAlign=bottom;spacingBottom=5;" parent="1" source="Lw5L4zQjM9W_Kat2M2BK-29" target="Lw5L4zQjM9W_Kat2M2BK-33" edge="1">
          <mxGeometry relative="1" as="geometry">
            <Array as="points">
              <mxPoint x="237" y="66" />
              <mxPoint x="237" y="66" />
            </Array>
          </mxGeometry>
        </mxCell>
        <mxCell id="Lw5L4zQjM9W_Kat2M2BK-29" value="" style="shape=image;verticalLabelPosition=bottom;labelBackgroundColor=none;verticalAlign=top;aspect=fixed;imageAspect=0;image=data:image/svg+xml,PHN2ZyB4bWxucz0iaHR0cDovL3d3dy53My5vcmcvMjAwMC9zdmciIHZpZXdCb3g9IjAgMCA4NTAgODUwIiB2ZXJzaW9uPSIxLjEiIGhlaWdodD0iODUwcHQiIHdpZHRoPSI4NTBwdCI+JiN4YTsgICAgPHN0eWxlIHR5cGU9InRleHQvY3NzIj4mI3hhOyAgICAgICAgLnRvcCB7JiN4YTsgICAgICAgIGZpbGw6IzZiNzI4MDsmI3hhOyAgICAgICAgfSYjeGE7ICAgICAgICAubGVmdCB7JiN4YTsgICAgICAgIGZpbGw6ICM0YjU1NjM7JiN4YTsgICAgICAgIH0mI3hhOyAgICAgICAgLnJpZ2h0IHsmI3hhOyAgICAgICAgZmlsbDojMWYyOTM3OyYjeGE7ICAgICAgICB9JiN4YTsmI3hhOyAgICAgICAgQG1lZGlhIChwcmVmZXJzLWNvbG9yLXNjaGVtZTogZGFyaykgeyYjeGE7ICAgICAgICAudG9wIHsmI3hhOyAgICAgICAgZmlsbDojZjlmYWZiOyYjeGE7ICAgICAgICB9JiN4YTsgICAgICAgIC5sZWZ0IHsmI3hhOyAgICAgICAgZmlsbDogI2U1ZTdlYjsmI3hhOyAgICAgICAgfSYjeGE7ICAgICAgICAucmlnaHQgeyYjeGE7ICAgICAgICBmaWxsOiAjOWNhM2FmOyYjeGE7ICAgICAgICB9JiN4YTsgICAgICAgIH0mI3hhOyAgICA8L3N0eWxlPiYjeGE7ICAgIDxnPiYjeGE7ICAgICAgICA8cGF0aCBkPSJNIDIzMCAyODAgbCAxNTcuMTggNzIuMzUyIGMgMjAuNjY4IDkuNTE1NiA1NC40OTYgOS41MTU2IDc1LjE0NSAwIGwgMTMyLjY0IC02MS4wNTUgbCAyMTcuNTMgLTEwMy43NCBjIC00LjU3NDIgLTMuNDMzNiAtOS4yNSAtNi41MTU2IC0xNC4xOTEgLTguNzczNCBsIC0zMTcuMDkgLTE0Ni4wMSBjIC0zMC45OTIgLTE0LjI3NyAtODEuNzQ2IC0xNC4yNzcgLTExMi43NiAwIGwgLTMxNy4xOSAxNDYuMDEgYyAtNS4wNzAzIDIuMzE2NCAtOS44NjcyIDUuNTIzNCAtMTQuNTQzIDkuMDYyNSB6IiBjbGFzcz0idG9wIi8+JiN4YTsgICAgICAgIDxwYXRoIGQ9Im0gNDIzLjM0IDQyMC45NiBjIDAgLTIyLjgwMSAtMTYuOTAyIC00OS4xNiAtMzcuNTc0IC01OC42OTUgbCAtMjM5LjQyIC0xMTAuMTUgYyAtMC4yMDcgLTAuMDgyIC0wLjM3MTEgLTAuMjUgLTAuNTc4MSAtMC4zNTE2IGwgLTEwOC4yNSAtNDkuODgzIHYgMzcyLjI1IGMgMCAzNC4xMzcgMjUuMzg3IDczLjczOCA1Ni4zOTggODguMDM1IGwgMzE3LjE5IDE0Ni4wMyBjIDIuODEyNSAxLjMwNDcgNS45NTcgMi4zMzk4IDkuMDYyNSAzLjM5NDUgbCAzLjE0NDUgLTE5My44IGwgMC4wMDM5IC0xOTYuODIgeiIgY2xhc3M9ImxlZnQiLz4mI3hhOyAgICAgICAgPHBhdGggZD0ibSA3MDguNTkgMjUwLjk2IGMgLTAuNDMzNiAwLjIyNjYgLTAuODA4NiAwLjUzOTEgLTEuMjgxMiAwLjc2NTYgbCAtMjM5LjQ2IDExMC4yMSBjIC0yMC42OTEgOS40OTYxIC0zNy41NzQgMzUuOTE4IC0zNy41NzQgNTguNjc2IHYgMTYyLjEyIGwgMC40NzY2IC0wLjAxOTUgbCAtMC43NDYxIDIyOS44IGMgNC40Njg4IC0xLjM0MzggOC43MTA5IC0yLjkzNzUgMTIuNjIxIC00LjczODMgbCAzMTcuMTcgLTE0Ni4wMyBjIDMwLjk5MiAtMTQuMjc3IDU2LjM5OCAtNTMuODc1IDU2LjM5OCAtODguMDM1IGwgLTAuMDYyNSAtMzcyLjM5IHoiIGNsYXNzPSJyaWdodCIvPiYjeGE7ICAgIDwvZz4mI3hhOzwvc3ZnPg==;shadow=1;textShadow=1;fontFamily=Atkinson Hyperlegible;fontSource=https%3A%2F%2Ffonts.googleapis.com%2Fcss%3Ffamily%3DAtkinson%2BHyperlegible;" parent="1" vertex="1">
          <mxGeometry x="41" y="30" width="93" height="93" as="geometry" />
        </mxCell>
        <mxCell id="Lw5L4zQjM9W_Kat2M2BK-30" value="Client" style="text;html=1;align=center;verticalAlign=middle;whiteSpace=wrap;rounded=0;fontFamily=Atkinson Hyperlegible;fontSource=https%3A%2F%2Ffonts.googleapis.com%2Fcss%3Ffamily%3DAtkinson%2BHyperlegible;" parent="1" vertex="1">
          <mxGeometry x="57.5" y="117" width="60" height="30" as="geometry" />
        </mxCell>
        <mxCell id="Lw5L4zQjM9W_Kat2M2BK-35" value="Response" style="edgeStyle=orthogonalEdgeStyle;rounded=0;orthogonalLoop=1;jettySize=auto;html=1;dashed=1;dashPattern=8 8;fontFamily=Atkinson Hyperlegible;fontSource=https%3A%2F%2Ffonts.googleapis.com%2Fcss%3Ffamily%3DAtkinson%2BHyperlegible;verticalAlign=top;labelBackgroundColor=none;" parent="1" source="Lw5L4zQjM9W_Kat2M2BK-33" target="Lw5L4zQjM9W_Kat2M2BK-29" edge="1">
          <mxGeometry x="-0.0014" relative="1" as="geometry">
            <Array as="points">
              <mxPoint x="237" y="86" />
              <mxPoint x="237" y="86" />
            </Array>
            <mxPoint as="offset" />
          </mxGeometry>
        </mxCell>
        <mxCell id="Lw5L4zQjM9W_Kat2M2BK-33" value="" style="shape=image;verticalLabelPosition=bottom;labelBackgroundColor=none;verticalAlign=top;aspect=fixed;imageAspect=0;image=data:image/svg+xml,PHN2ZyB4bWxucz0iaHR0cDovL3d3dy53My5vcmcvMjAwMC9zdmciIHZpZXdCb3g9IjAgMCA4NTAgODUwIiB2ZXJzaW9uPSIxLjEiIGhlaWdodD0iODUwcHQiIHdpZHRoPSI4NTBwdCI+JiN4YTsgICAgPHN0eWxlIHR5cGU9InRleHQvY3NzIj4mI3hhOyAgICAgICAgLnRvcCB7JiN4YTsgICAgICAgIGZpbGw6IzZiNzI4MDsmI3hhOyAgICAgICAgfSYjeGE7ICAgICAgICAubGVmdCB7JiN4YTsgICAgICAgIGZpbGw6ICM0YjU1NjM7JiN4YTsgICAgICAgIH0mI3hhOyAgICAgICAgLnJpZ2h0IHsmI3hhOyAgICAgICAgZmlsbDojMWYyOTM3OyYjeGE7ICAgICAgICB9JiN4YTsmI3hhOyAgICAgICAgQG1lZGlhIChwcmVmZXJzLWNvbG9yLXNjaGVtZTogZGFyaykgeyYjeGE7ICAgICAgICAudG9wIHsmI3hhOyAgICAgICAgZmlsbDojZjlmYWZiOyYjeGE7ICAgICAgICB9JiN4YTsgICAgICAgIC5sZWZ0IHsmI3hhOyAgICAgICAgZmlsbDogI2U1ZTdlYjsmI3hhOyAgICAgICAgfSYjeGE7ICAgICAgICAucmlnaHQgeyYjeGE7ICAgICAgICBmaWxsOiAjOWNhM2FmOyYjeGE7ICAgICAgICB9JiN4YTsgICAgICAgIH0mI3hhOyAgICA8L3N0eWxlPiYjeGE7ICAgIDxnPiYjeGE7ICAgICAgICA8cGF0aCBkPSJNIDIzMCAyODAgbCAxNTcuMTggNzIuMzUyIGMgMjAuNjY4IDkuNTE1NiA1NC40OTYgOS41MTU2IDc1LjE0NSAwIGwgMTMyLjY0IC02MS4wNTUgbCAyMTcuNTMgLTEwMy43NCBjIC00LjU3NDIgLTMuNDMzNiAtOS4yNSAtNi41MTU2IC0xNC4xOTEgLTguNzczNCBsIC0zMTcuMDkgLTE0Ni4wMSBjIC0zMC45OTIgLTE0LjI3NyAtODEuNzQ2IC0xNC4yNzcgLTExMi43NiAwIGwgLTMxNy4xOSAxNDYuMDEgYyAtNS4wNzAzIDIuMzE2NCAtOS44NjcyIDUuNTIzNCAtMTQuNTQzIDkuMDYyNSB6IiBjbGFzcz0idG9wIi8+JiN4YTsgICAgICAgIDxwYXRoIGQ9Im0gNDIzLjM0IDQyMC45NiBjIDAgLTIyLjgwMSAtMTYuOTAyIC00OS4xNiAtMzcuNTc0IC01OC42OTUgbCAtMjM5LjQyIC0xMTAuMTUgYyAtMC4yMDcgLTAuMDgyIC0wLjM3MTEgLTAuMjUgLTAuNTc4MSAtMC4zNTE2IGwgLTEwOC4yNSAtNDkuODgzIHYgMzcyLjI1IGMgMCAzNC4xMzcgMjUuMzg3IDczLjczOCA1Ni4zOTggODguMDM1IGwgMzE3LjE5IDE0Ni4wMyBjIDIuODEyNSAxLjMwNDcgNS45NTcgMi4zMzk4IDkuMDYyNSAzLjM5NDUgbCAzLjE0NDUgLTE5My44IGwgMC4wMDM5IC0xOTYuODIgeiIgY2xhc3M9ImxlZnQiLz4mI3hhOyAgICAgICAgPHBhdGggZD0ibSA3MDguNTkgMjUwLjk2IGMgLTAuNDMzNiAwLjIyNjYgLTAuODA4NiAwLjUzOTEgLTEuMjgxMiAwLjc2NTYgbCAtMjM5LjQ2IDExMC4yMSBjIC0yMC42OTEgOS40OTYxIC0zNy41NzQgMzUuOTE4IC0zNy41NzQgNTguNjc2IHYgMTYyLjEyIGwgMC40NzY2IC0wLjAxOTUgbCAtMC43NDYxIDIyOS44IGMgNC40Njg4IC0xLjM0MzggOC43MTA5IC0yLjkzNzUgMTIuNjIxIC00LjczODMgbCAzMTcuMTcgLTE0Ni4wMyBjIDMwLjk5MiAtMTQuMjc3IDU2LjM5OCAtNTMuODc1IDU2LjM5OCAtODguMDM1IGwgLTAuMDYyNSAtMzcyLjM5IHoiIGNsYXNzPSJyaWdodCIvPiYjeGE7ICAgIDwvZz4mI3hhOzwvc3ZnPg==;shadow=1;textShadow=1;fontFamily=Atkinson Hyperlegible;fontSource=https%3A%2F%2Ffonts.googleapis.com%2Fcss%3Ffamily%3DAtkinson%2BHyperlegible;" parent="1" vertex="1">
          <mxGeometry x="340" y="30" width="93" height="93" as="geometry" />
        </mxCell>
        <mxCell id="Lw5L4zQjM9W_Kat2M2BK-34" value="Server" style="text;html=1;align=center;verticalAlign=middle;whiteSpace=wrap;rounded=0;fontFamily=Atkinson Hyperlegible;fontSource=https%3A%2F%2Ffonts.googleapis.com%2Fcss%3Ffamily%3DAtkinson%2BHyperlegible;" parent="1" vertex="1">
          <mxGeometry x="356.5" y="117" width="60" height="30" as="geometry" />
        </mxCell>
      </root>
    </mxGraphModel>
  </diagram>
  <diagram id="fGYxBOiJzs5gf10N1rpJ" name="Broker">
    <mxGraphModel dx="988" dy="527" grid="1" gridSize="10" guides="1" tooltips="1" connect="1" arrows="1" fold="1" page="1" pageScale="1" pageWidth="1169" pageHeight="827" math="0" shadow="1">
      <root>
        <mxCell id="0" />
        <mxCell id="1" parent="0" />
        <mxCell id="yfdfrTJrh4Lv6cCd8YAW-5" value="Request" style="edgeStyle=orthogonalEdgeStyle;rounded=0;orthogonalLoop=1;jettySize=auto;html=1;labelBackgroundColor=none;verticalAlign=bottom;fontFamily=Atkinson Hyperlegible;fontSource=https%3A%2F%2Ffonts.googleapis.com%2Fcss%3Ffamily%3DAtkinson%2BHyperlegible;" parent="1" source="sAlcsNE6bz9asQmO-AkL-14" target="yfdfrTJrh4Lv6cCd8YAW-3" edge="1">
          <mxGeometry x="-0.0005" relative="1" as="geometry">
            <mxPoint x="403.1399999999999" y="70" as="sourcePoint" />
            <Array as="points">
              <mxPoint x="460" y="70" />
              <mxPoint x="460" y="70" />
            </Array>
            <mxPoint as="offset" />
          </mxGeometry>
        </mxCell>
        <mxCell id="yfdfrTJrh4Lv6cCd8YAW-7" value="&lt;font face=&quot;Atkinson Hyperlegible&quot;&gt;Response&lt;/font&gt;" style="edgeStyle=orthogonalEdgeStyle;rounded=0;orthogonalLoop=1;jettySize=auto;html=1;dashed=1;dashPattern=8 8;labelBackgroundColor=none;verticalAlign=top;spacingBottom=0;spacingTop=-5;" parent="1" source="sAlcsNE6bz9asQmO-AkL-14" target="yfdfrTJrh4Lv6cCd8YAW-1" edge="1">
          <mxGeometry relative="1" as="geometry">
            <mxPoint x="290" y="90" as="sourcePoint" />
            <Array as="points">
              <mxPoint x="240" y="90" />
              <mxPoint x="240" y="90" />
            </Array>
          </mxGeometry>
        </mxCell>
        <mxCell id="yfdfrTJrh4Lv6cCd8YAW-4" value="Request" style="edgeStyle=orthogonalEdgeStyle;rounded=0;orthogonalLoop=1;jettySize=auto;html=1;labelBackgroundColor=none;verticalAlign=bottom;spacingBottom=0;fontFamily=Atkinson Hyperlegible;fontSource=https%3A%2F%2Ffonts.googleapis.com%2Fcss%3Ffamily%3DAtkinson%2BHyperlegible;" parent="1" source="yfdfrTJrh4Lv6cCd8YAW-1" target="sAlcsNE6bz9asQmO-AkL-14" edge="1">
          <mxGeometry relative="1" as="geometry">
            <mxPoint x="290" y="70" as="targetPoint" />
            <Array as="points">
              <mxPoint x="240" y="70" />
              <mxPoint x="240" y="70" />
            </Array>
          </mxGeometry>
        </mxCell>
        <mxCell id="yfdfrTJrh4Lv6cCd8YAW-1" value="" style="shape=image;verticalLabelPosition=bottom;labelBackgroundColor=none;verticalAlign=top;aspect=fixed;imageAspect=0;image=data:image/svg+xml,PHN2ZyB4bWxucz0iaHR0cDovL3d3dy53My5vcmcvMjAwMC9zdmciIHZpZXdCb3g9IjAgMCA4NTAgODUwIiB2ZXJzaW9uPSIxLjEiIGhlaWdodD0iODUwcHQiIHdpZHRoPSI4NTBwdCI+JiN4YTsgICAgPHN0eWxlIHR5cGU9InRleHQvY3NzIj4mI3hhOyAgICAgICAgLnRvcCB7JiN4YTsgICAgICAgIGZpbGw6IzZiNzI4MDsmI3hhOyAgICAgICAgfSYjeGE7ICAgICAgICAubGVmdCB7JiN4YTsgICAgICAgIGZpbGw6ICM0YjU1NjM7JiN4YTsgICAgICAgIH0mI3hhOyAgICAgICAgLnJpZ2h0IHsmI3hhOyAgICAgICAgZmlsbDojMWYyOTM3OyYjeGE7ICAgICAgICB9JiN4YTsmI3hhOyAgICAgICAgQG1lZGlhIChwcmVmZXJzLWNvbG9yLXNjaGVtZTogZGFyaykgeyYjeGE7ICAgICAgICAudG9wIHsmI3hhOyAgICAgICAgZmlsbDojZjlmYWZiOyYjeGE7ICAgICAgICB9JiN4YTsgICAgICAgIC5sZWZ0IHsmI3hhOyAgICAgICAgZmlsbDogI2U1ZTdlYjsmI3hhOyAgICAgICAgfSYjeGE7ICAgICAgICAucmlnaHQgeyYjeGE7ICAgICAgICBmaWxsOiAjOWNhM2FmOyYjeGE7ICAgICAgICB9JiN4YTsgICAgICAgIH0mI3hhOyAgICA8L3N0eWxlPiYjeGE7ICAgIDxnPiYjeGE7ICAgICAgICA8cGF0aCBkPSJNIDIzMCAyODAgbCAxNTcuMTggNzIuMzUyIGMgMjAuNjY4IDkuNTE1NiA1NC40OTYgOS41MTU2IDc1LjE0NSAwIGwgMTMyLjY0IC02MS4wNTUgbCAyMTcuNTMgLTEwMy43NCBjIC00LjU3NDIgLTMuNDMzNiAtOS4yNSAtNi41MTU2IC0xNC4xOTEgLTguNzczNCBsIC0zMTcuMDkgLTE0Ni4wMSBjIC0zMC45OTIgLTE0LjI3NyAtODEuNzQ2IC0xNC4yNzcgLTExMi43NiAwIGwgLTMxNy4xOSAxNDYuMDEgYyAtNS4wNzAzIDIuMzE2NCAtOS44NjcyIDUuNTIzNCAtMTQuNTQzIDkuMDYyNSB6IiBjbGFzcz0idG9wIi8+JiN4YTsgICAgICAgIDxwYXRoIGQ9Im0gNDIzLjM0IDQyMC45NiBjIDAgLTIyLjgwMSAtMTYuOTAyIC00OS4xNiAtMzcuNTc0IC01OC42OTUgbCAtMjM5LjQyIC0xMTAuMTUgYyAtMC4yMDcgLTAuMDgyIC0wLjM3MTEgLTAuMjUgLTAuNTc4MSAtMC4zNTE2IGwgLTEwOC4yNSAtNDkuODgzIHYgMzcyLjI1IGMgMCAzNC4xMzcgMjUuMzg3IDczLjczOCA1Ni4zOTggODguMDM1IGwgMzE3LjE5IDE0Ni4wMyBjIDIuODEyNSAxLjMwNDcgNS45NTcgMi4zMzk4IDkuMDYyNSAzLjM5NDUgbCAzLjE0NDUgLTE5My44IGwgMC4wMDM5IC0xOTYuODIgeiIgY2xhc3M9ImxlZnQiLz4mI3hhOyAgICAgICAgPHBhdGggZD0ibSA3MDguNTkgMjUwLjk2IGMgLTAuNDMzNiAwLjIyNjYgLTAuODA4NiAwLjUzOTEgLTEuMjgxMiAwLjc2NTYgbCAtMjM5LjQ2IDExMC4yMSBjIC0yMC42OTEgOS40OTYxIC0zNy41NzQgMzUuOTE4IC0zNy41NzQgNTguNjc2IHYgMTYyLjEyIGwgMC40NzY2IC0wLjAxOTUgbCAtMC43NDYxIDIyOS44IGMgNC40Njg4IC0xLjM0MzggOC43MTA5IC0yLjkzNzUgMTIuNjIxIC00LjczODMgbCAzMTcuMTcgLTE0Ni4wMyBjIDMwLjk5MiAtMTQuMjc3IDU2LjM5OCAtNTMuODc1IDU2LjM5OCAtODguMDM1IGwgLTAuMDYyNSAtMzcyLjM5IHoiIGNsYXNzPSJyaWdodCIvPiYjeGE7ICAgIDwvZz4mI3hhOzwvc3ZnPg==;shadow=1;textShadow=1;fontFamily=Atkinson Hyperlegible;fontSource=https%3A%2F%2Ffonts.googleapis.com%2Fcss%3Ffamily%3DAtkinson%2BHyperlegible;" parent="1" vertex="1">
          <mxGeometry x="90" y="30" width="93" height="93" as="geometry" />
        </mxCell>
        <mxCell id="yfdfrTJrh4Lv6cCd8YAW-8" value="&lt;font data-font-src=&quot;https://fonts.googleapis.com/css?family=Atkinson+Hyperlegible&quot; face=&quot;Atkinson Hyperlegible&quot;&gt;Response&lt;/font&gt;" style="edgeStyle=orthogonalEdgeStyle;rounded=0;orthogonalLoop=1;jettySize=auto;html=1;labelBackgroundColor=none;verticalAlign=top;spacingTop=-5;dashed=1;dashPattern=8 8;" parent="1" source="yfdfrTJrh4Lv6cCd8YAW-3" target="sAlcsNE6bz9asQmO-AkL-14" edge="1">
          <mxGeometry relative="1" as="geometry">
            <mxPoint x="403.1399999999999" y="90" as="targetPoint" />
            <Array as="points">
              <mxPoint x="460" y="90" />
              <mxPoint x="460" y="90" />
            </Array>
          </mxGeometry>
        </mxCell>
        <mxCell id="yfdfrTJrh4Lv6cCd8YAW-3" value="" style="shape=image;verticalLabelPosition=bottom;labelBackgroundColor=none;verticalAlign=top;aspect=fixed;imageAspect=0;image=data:image/svg+xml,PHN2ZyB4bWxucz0iaHR0cDovL3d3dy53My5vcmcvMjAwMC9zdmciIHZpZXdCb3g9IjAgMCA4NTAgODUwIiB2ZXJzaW9uPSIxLjEiIGhlaWdodD0iODUwcHQiIHdpZHRoPSI4NTBwdCI+JiN4YTsgICAgPHN0eWxlIHR5cGU9InRleHQvY3NzIj4mI3hhOyAgICAgICAgLnRvcCB7JiN4YTsgICAgICAgIGZpbGw6IzZiNzI4MDsmI3hhOyAgICAgICAgfSYjeGE7ICAgICAgICAubGVmdCB7JiN4YTsgICAgICAgIGZpbGw6ICM0YjU1NjM7JiN4YTsgICAgICAgIH0mI3hhOyAgICAgICAgLnJpZ2h0IHsmI3hhOyAgICAgICAgZmlsbDojMWYyOTM3OyYjeGE7ICAgICAgICB9JiN4YTsmI3hhOyAgICAgICAgQG1lZGlhIChwcmVmZXJzLWNvbG9yLXNjaGVtZTogZGFyaykgeyYjeGE7ICAgICAgICAudG9wIHsmI3hhOyAgICAgICAgZmlsbDojZjlmYWZiOyYjeGE7ICAgICAgICB9JiN4YTsgICAgICAgIC5sZWZ0IHsmI3hhOyAgICAgICAgZmlsbDogI2U1ZTdlYjsmI3hhOyAgICAgICAgfSYjeGE7ICAgICAgICAucmlnaHQgeyYjeGE7ICAgICAgICBmaWxsOiAjOWNhM2FmOyYjeGE7ICAgICAgICB9JiN4YTsgICAgICAgIH0mI3hhOyAgICA8L3N0eWxlPiYjeGE7ICAgIDxnPiYjeGE7ICAgICAgICA8cGF0aCBkPSJNIDIzMCAyODAgbCAxNTcuMTggNzIuMzUyIGMgMjAuNjY4IDkuNTE1NiA1NC40OTYgOS41MTU2IDc1LjE0NSAwIGwgMTMyLjY0IC02MS4wNTUgbCAyMTcuNTMgLTEwMy43NCBjIC00LjU3NDIgLTMuNDMzNiAtOS4yNSAtNi41MTU2IC0xNC4xOTEgLTguNzczNCBsIC0zMTcuMDkgLTE0Ni4wMSBjIC0zMC45OTIgLTE0LjI3NyAtODEuNzQ2IC0xNC4yNzcgLTExMi43NiAwIGwgLTMxNy4xOSAxNDYuMDEgYyAtNS4wNzAzIDIuMzE2NCAtOS44NjcyIDUuNTIzNCAtMTQuNTQzIDkuMDYyNSB6IiBjbGFzcz0idG9wIi8+JiN4YTsgICAgICAgIDxwYXRoIGQ9Im0gNDIzLjM0IDQyMC45NiBjIDAgLTIyLjgwMSAtMTYuOTAyIC00OS4xNiAtMzcuNTc0IC01OC42OTUgbCAtMjM5LjQyIC0xMTAuMTUgYyAtMC4yMDcgLTAuMDgyIC0wLjM3MTEgLTAuMjUgLTAuNTc4MSAtMC4zNTE2IGwgLTEwOC4yNSAtNDkuODgzIHYgMzcyLjI1IGMgMCAzNC4xMzcgMjUuMzg3IDczLjczOCA1Ni4zOTggODguMDM1IGwgMzE3LjE5IDE0Ni4wMyBjIDIuODEyNSAxLjMwNDcgNS45NTcgMi4zMzk4IDkuMDYyNSAzLjM5NDUgbCAzLjE0NDUgLTE5My44IGwgMC4wMDM5IC0xOTYuODIgeiIgY2xhc3M9ImxlZnQiLz4mI3hhOyAgICAgICAgPHBhdGggZD0ibSA3MDguNTkgMjUwLjk2IGMgLTAuNDMzNiAwLjIyNjYgLTAuODA4NiAwLjUzOTEgLTEuMjgxMiAwLjc2NTYgbCAtMjM5LjQ2IDExMC4yMSBjIC0yMC42OTEgOS40OTYxIC0zNy41NzQgMzUuOTE4IC0zNy41NzQgNTguNjc2IHYgMTYyLjEyIGwgMC40NzY2IC0wLjAxOTUgbCAtMC43NDYxIDIyOS44IGMgNC40Njg4IC0xLjM0MzggOC43MTA5IC0yLjkzNzUgMTIuNjIxIC00LjczODMgbCAzMTcuMTcgLTE0Ni4wMyBjIDMwLjk5MiAtMTQuMjc3IDU2LjM5OCAtNTMuODc1IDU2LjM5OCAtODguMDM1IGwgLTAuMDYyNSAtMzcyLjM5IHoiIGNsYXNzPSJyaWdodCIvPiYjeGE7ICAgIDwvZz4mI3hhOzwvc3ZnPg==;shadow=1;textShadow=1;fontFamily=Atkinson Hyperlegible;fontSource=https%3A%2F%2Ffonts.googleapis.com%2Fcss%3Ffamily%3DAtkinson%2BHyperlegible;" parent="1" vertex="1">
          <mxGeometry x="513.5" y="30" width="93" height="93" as="geometry" />
        </mxCell>
        <mxCell id="sAlcsNE6bz9asQmO-AkL-1" value="Client" style="text;html=1;align=center;verticalAlign=middle;whiteSpace=wrap;rounded=0;fontFamily=Atkinson Hyperlegible;fontSource=https%3A%2F%2Ffonts.googleapis.com%2Fcss%3Ffamily%3DAtkinson%2BHyperlegible;" parent="1" vertex="1">
          <mxGeometry x="106.5" y="117" width="60" height="30" as="geometry" />
        </mxCell>
        <mxCell id="sAlcsNE6bz9asQmO-AkL-2" value="Provider" style="text;html=1;align=center;verticalAlign=middle;whiteSpace=wrap;rounded=0;fontFamily=Atkinson Hyperlegible;fontSource=https%3A%2F%2Ffonts.googleapis.com%2Fcss%3Ffamily%3DAtkinson%2BHyperlegible;" parent="1" vertex="1">
          <mxGeometry x="530" y="117" width="60" height="30" as="geometry" />
        </mxCell>
        <mxCell id="sAlcsNE6bz9asQmO-AkL-3" value="Event" style="edgeStyle=orthogonalEdgeStyle;rounded=0;orthogonalLoop=1;jettySize=auto;html=1;labelBackgroundColor=none;verticalAlign=bottom;fontFamily=Atkinson Hyperlegible;fontSource=https%3A%2F%2Ffonts.googleapis.com%2Fcss%3Ffamily%3DAtkinson%2BHyperlegible;endArrow=open;endFill=0;" parent="1" source="sAlcsNE6bz9asQmO-AkL-13" target="sAlcsNE6bz9asQmO-AkL-9" edge="1">
          <mxGeometry relative="1" as="geometry">
            <Array as="points" />
            <mxPoint x="403.1399999999999" y="220" as="sourcePoint" />
          </mxGeometry>
        </mxCell>
        <mxCell id="sAlcsNE6bz9asQmO-AkL-6" value="Event" style="edgeStyle=orthogonalEdgeStyle;rounded=0;orthogonalLoop=1;jettySize=auto;html=1;labelBackgroundColor=none;verticalAlign=bottom;spacingBottom=0;fontFamily=Atkinson Hyperlegible;fontSource=https%3A%2F%2Ffonts.googleapis.com%2Fcss%3Ffamily%3DAtkinson%2BHyperlegible;endArrow=open;endFill=0;" parent="1" source="sAlcsNE6bz9asQmO-AkL-7" target="sAlcsNE6bz9asQmO-AkL-13" edge="1">
          <mxGeometry relative="1" as="geometry">
            <Array as="points" />
            <mxPoint x="290" y="220" as="targetPoint" />
          </mxGeometry>
        </mxCell>
        <mxCell id="sAlcsNE6bz9asQmO-AkL-7" value="" style="shape=image;verticalLabelPosition=bottom;labelBackgroundColor=none;verticalAlign=top;aspect=fixed;imageAspect=0;image=data:image/svg+xml,PHN2ZyB4bWxucz0iaHR0cDovL3d3dy53My5vcmcvMjAwMC9zdmciIHZpZXdCb3g9IjAgMCA4NTAgODUwIiB2ZXJzaW9uPSIxLjEiIGhlaWdodD0iODUwcHQiIHdpZHRoPSI4NTBwdCI+JiN4YTsgICAgPHN0eWxlIHR5cGU9InRleHQvY3NzIj4mI3hhOyAgICAgICAgLnRvcCB7JiN4YTsgICAgICAgIGZpbGw6IzZiNzI4MDsmI3hhOyAgICAgICAgfSYjeGE7ICAgICAgICAubGVmdCB7JiN4YTsgICAgICAgIGZpbGw6ICM0YjU1NjM7JiN4YTsgICAgICAgIH0mI3hhOyAgICAgICAgLnJpZ2h0IHsmI3hhOyAgICAgICAgZmlsbDojMWYyOTM3OyYjeGE7ICAgICAgICB9JiN4YTsmI3hhOyAgICAgICAgQG1lZGlhIChwcmVmZXJzLWNvbG9yLXNjaGVtZTogZGFyaykgeyYjeGE7ICAgICAgICAudG9wIHsmI3hhOyAgICAgICAgZmlsbDojZjlmYWZiOyYjeGE7ICAgICAgICB9JiN4YTsgICAgICAgIC5sZWZ0IHsmI3hhOyAgICAgICAgZmlsbDogI2U1ZTdlYjsmI3hhOyAgICAgICAgfSYjeGE7ICAgICAgICAucmlnaHQgeyYjeGE7ICAgICAgICBmaWxsOiAjOWNhM2FmOyYjeGE7ICAgICAgICB9JiN4YTsgICAgICAgIH0mI3hhOyAgICA8L3N0eWxlPiYjeGE7ICAgIDxnPiYjeGE7ICAgICAgICA8cGF0aCBkPSJNIDIzMCAyODAgbCAxNTcuMTggNzIuMzUyIGMgMjAuNjY4IDkuNTE1NiA1NC40OTYgOS41MTU2IDc1LjE0NSAwIGwgMTMyLjY0IC02MS4wNTUgbCAyMTcuNTMgLTEwMy43NCBjIC00LjU3NDIgLTMuNDMzNiAtOS4yNSAtNi41MTU2IC0xNC4xOTEgLTguNzczNCBsIC0zMTcuMDkgLTE0Ni4wMSBjIC0zMC45OTIgLTE0LjI3NyAtODEuNzQ2IC0xNC4yNzcgLTExMi43NiAwIGwgLTMxNy4xOSAxNDYuMDEgYyAtNS4wNzAzIDIuMzE2NCAtOS44NjcyIDUuNTIzNCAtMTQuNTQzIDkuMDYyNSB6IiBjbGFzcz0idG9wIi8+JiN4YTsgICAgICAgIDxwYXRoIGQ9Im0gNDIzLjM0IDQyMC45NiBjIDAgLTIyLjgwMSAtMTYuOTAyIC00OS4xNiAtMzcuNTc0IC01OC42OTUgbCAtMjM5LjQyIC0xMTAuMTUgYyAtMC4yMDcgLTAuMDgyIC0wLjM3MTEgLTAuMjUgLTAuNTc4MSAtMC4zNTE2IGwgLTEwOC4yNSAtNDkuODgzIHYgMzcyLjI1IGMgMCAzNC4xMzcgMjUuMzg3IDczLjczOCA1Ni4zOTggODguMDM1IGwgMzE3LjE5IDE0Ni4wMyBjIDIuODEyNSAxLjMwNDcgNS45NTcgMi4zMzk4IDkuMDYyNSAzLjM5NDUgbCAzLjE0NDUgLTE5My44IGwgMC4wMDM5IC0xOTYuODIgeiIgY2xhc3M9ImxlZnQiLz4mI3hhOyAgICAgICAgPHBhdGggZD0ibSA3MDguNTkgMjUwLjk2IGMgLTAuNDMzNiAwLjIyNjYgLTAuODA4NiAwLjUzOTEgLTEuMjgxMiAwLjc2NTYgbCAtMjM5LjQ2IDExMC4yMSBjIC0yMC42OTEgOS40OTYxIC0zNy41NzQgMzUuOTE4IC0zNy41NzQgNTguNjc2IHYgMTYyLjEyIGwgMC40NzY2IC0wLjAxOTUgbCAtMC43NDYxIDIyOS44IGMgNC40Njg4IC0xLjM0MzggOC43MTA5IC0yLjkzNzUgMTIuNjIxIC00LjczODMgbCAzMTcuMTcgLTE0Ni4wMyBjIDMwLjk5MiAtMTQuMjc3IDU2LjM5OCAtNTMuODc1IDU2LjM5OCAtODguMDM1IGwgLTAuMDYyNSAtMzcyLjM5IHoiIGNsYXNzPSJyaWdodCIvPiYjeGE7ICAgIDwvZz4mI3hhOzwvc3ZnPg==;shadow=1;textShadow=1;fontFamily=Atkinson Hyperlegible;fontSource=https%3A%2F%2Ffonts.googleapis.com%2Fcss%3Ffamily%3DAtkinson%2BHyperlegible;" parent="1" vertex="1">
          <mxGeometry x="90" y="170" width="93" height="93" as="geometry" />
        </mxCell>
        <mxCell id="sAlcsNE6bz9asQmO-AkL-9" value="" style="shape=image;verticalLabelPosition=bottom;labelBackgroundColor=none;verticalAlign=top;aspect=fixed;imageAspect=0;image=data:image/svg+xml,PHN2ZyB4bWxucz0iaHR0cDovL3d3dy53My5vcmcvMjAwMC9zdmciIHZpZXdCb3g9IjAgMCA4NTAgODUwIiB2ZXJzaW9uPSIxLjEiIGhlaWdodD0iODUwcHQiIHdpZHRoPSI4NTBwdCI+JiN4YTsgICAgPHN0eWxlIHR5cGU9InRleHQvY3NzIj4mI3hhOyAgICAgICAgLnRvcCB7JiN4YTsgICAgICAgIGZpbGw6IzZiNzI4MDsmI3hhOyAgICAgICAgfSYjeGE7ICAgICAgICAubGVmdCB7JiN4YTsgICAgICAgIGZpbGw6ICM0YjU1NjM7JiN4YTsgICAgICAgIH0mI3hhOyAgICAgICAgLnJpZ2h0IHsmI3hhOyAgICAgICAgZmlsbDojMWYyOTM3OyYjeGE7ICAgICAgICB9JiN4YTsmI3hhOyAgICAgICAgQG1lZGlhIChwcmVmZXJzLWNvbG9yLXNjaGVtZTogZGFyaykgeyYjeGE7ICAgICAgICAudG9wIHsmI3hhOyAgICAgICAgZmlsbDojZjlmYWZiOyYjeGE7ICAgICAgICB9JiN4YTsgICAgICAgIC5sZWZ0IHsmI3hhOyAgICAgICAgZmlsbDogI2U1ZTdlYjsmI3hhOyAgICAgICAgfSYjeGE7ICAgICAgICAucmlnaHQgeyYjeGE7ICAgICAgICBmaWxsOiAjOWNhM2FmOyYjeGE7ICAgICAgICB9JiN4YTsgICAgICAgIH0mI3hhOyAgICA8L3N0eWxlPiYjeGE7ICAgIDxnPiYjeGE7ICAgICAgICA8cGF0aCBkPSJNIDIzMCAyODAgbCAxNTcuMTggNzIuMzUyIGMgMjAuNjY4IDkuNTE1NiA1NC40OTYgOS41MTU2IDc1LjE0NSAwIGwgMTMyLjY0IC02MS4wNTUgbCAyMTcuNTMgLTEwMy43NCBjIC00LjU3NDIgLTMuNDMzNiAtOS4yNSAtNi41MTU2IC0xNC4xOTEgLTguNzczNCBsIC0zMTcuMDkgLTE0Ni4wMSBjIC0zMC45OTIgLTE0LjI3NyAtODEuNzQ2IC0xNC4yNzcgLTExMi43NiAwIGwgLTMxNy4xOSAxNDYuMDEgYyAtNS4wNzAzIDIuMzE2NCAtOS44NjcyIDUuNTIzNCAtMTQuNTQzIDkuMDYyNSB6IiBjbGFzcz0idG9wIi8+JiN4YTsgICAgICAgIDxwYXRoIGQ9Im0gNDIzLjM0IDQyMC45NiBjIDAgLTIyLjgwMSAtMTYuOTAyIC00OS4xNiAtMzcuNTc0IC01OC42OTUgbCAtMjM5LjQyIC0xMTAuMTUgYyAtMC4yMDcgLTAuMDgyIC0wLjM3MTEgLTAuMjUgLTAuNTc4MSAtMC4zNTE2IGwgLTEwOC4yNSAtNDkuODgzIHYgMzcyLjI1IGMgMCAzNC4xMzcgMjUuMzg3IDczLjczOCA1Ni4zOTggODguMDM1IGwgMzE3LjE5IDE0Ni4wMyBjIDIuODEyNSAxLjMwNDcgNS45NTcgMi4zMzk4IDkuMDYyNSAzLjM5NDUgbCAzLjE0NDUgLTE5My44IGwgMC4wMDM5IC0xOTYuODIgeiIgY2xhc3M9ImxlZnQiLz4mI3hhOyAgICAgICAgPHBhdGggZD0ibSA3MDguNTkgMjUwLjk2IGMgLTAuNDMzNiAwLjIyNjYgLTAuODA4NiAwLjUzOTEgLTEuMjgxMiAwLjc2NTYgbCAtMjM5LjQ2IDExMC4yMSBjIC0yMC42OTEgOS40OTYxIC0zNy41NzQgMzUuOTE4IC0zNy41NzQgNTguNjc2IHYgMTYyLjEyIGwgMC40NzY2IC0wLjAxOTUgbCAtMC43NDYxIDIyOS44IGMgNC40Njg4IC0xLjM0MzggOC43MTA5IC0yLjkzNzUgMTIuNjIxIC00LjczODMgbCAzMTcuMTcgLTE0Ni4wMyBjIDMwLjk5MiAtMTQuMjc3IDU2LjM5OCAtNTMuODc1IDU2LjM5OCAtODguMDM1IGwgLTAuMDYyNSAtMzcyLjM5IHoiIGNsYXNzPSJyaWdodCIvPiYjeGE7ICAgIDwvZz4mI3hhOzwvc3ZnPg==;shadow=1;textShadow=1;fontFamily=Atkinson Hyperlegible;fontSource=https%3A%2F%2Ffonts.googleapis.com%2Fcss%3Ffamily%3DAtkinson%2BHyperlegible;" parent="1" vertex="1">
          <mxGeometry x="513.5" y="170" width="93" height="93" as="geometry" />
        </mxCell>
        <mxCell id="sAlcsNE6bz9asQmO-AkL-10" value="Producer" style="text;html=1;align=center;verticalAlign=middle;whiteSpace=wrap;rounded=0;fontFamily=Atkinson Hyperlegible;fontSource=https%3A%2F%2Ffonts.googleapis.com%2Fcss%3Ffamily%3DAtkinson%2BHyperlegible;" parent="1" vertex="1">
          <mxGeometry x="106.5" y="257" width="60" height="30" as="geometry" />
        </mxCell>
        <mxCell id="sAlcsNE6bz9asQmO-AkL-11" value="Consumer" style="text;html=1;align=center;verticalAlign=middle;whiteSpace=wrap;rounded=0;fontFamily=Atkinson Hyperlegible;fontSource=https%3A%2F%2Ffonts.googleapis.com%2Fcss%3Ffamily%3DAtkinson%2BHyperlegible;" parent="1" vertex="1">
          <mxGeometry x="530" y="257" width="60" height="30" as="geometry" />
        </mxCell>
        <mxCell id="sAlcsNE6bz9asQmO-AkL-13" value="Message Broker" style="shape=image;verticalLabelPosition=bottom;labelBackgroundColor=none;verticalAlign=top;aspect=fixed;imageAspect=0;image=data:image/svg+xml,PHN2ZyB4bWxucz0iaHR0cDovL3d3dy53My5vcmcvMjAwMC9zdmciIHZpZXdCb3g9IjAgMCA2NjAgMzUwIiB2ZXJzaW9uPSIxLjEiIGhlaWdodD0iMzUwcHQiIHdpZHRoPSI2NjBwdCI+JiN4YTsgICAgPGRlZnM+JiN4YTsgICAgICAgIDxsaW5lYXJHcmFkaWVudCB5Mj0iMSIgeTE9IjAiIHgyPSIwIiB4MT0iMCIgaWQ9IkdyYWRpZW50Q2xvdWQiPiYjeGE7ICAgICAgICAgICAgPHN0b3Agb2Zmc2V0PSIwJSIgc3RvcC1jb2xvcj0iIzZiNzI4MCIvPiYjeGE7ICAgICAgICAgICAgPHN0b3Agb2Zmc2V0PSIxMDAlIiBzdG9wLWNvbG9yPSIjNGI1NTYzIi8+JiN4YTsgICAgICAgIDwvbGluZWFyR3JhZGllbnQ+JiN4YTsgICAgICAgIDxsaW5lYXJHcmFkaWVudCB5Mj0iMSIgeTE9IjAiIHgyPSIwIiB4MT0iMCIgaWQ9IkdyYWRpZW50Q2xvdWREYXJrIj4mI3hhOyAgICAgICAgICAgIDxzdG9wIG9mZnNldD0iMCUiIHN0b3AtY29sb3I9IiNlNWU3ZWIiLz4mI3hhOyAgICAgICAgICAgIDxzdG9wIG9mZnNldD0iMTAwJSIgc3RvcC1jb2xvcj0iI2QxZDVkYiIvPiYjeGE7ICAgICAgICA8L2xpbmVhckdyYWRpZW50PiYjeGE7ICAgICAgICA8c3R5bGUgdHlwZT0idGV4dC9jc3MiPiYjeGE7ICAgICAgICAgICAgLmNsb3VkIHsmI3hhOyAgICAgICAgICAgIGZpbGw6dXJsKCNHcmFkaWVudENsb3VkKTsmI3hhOyAgICAgICAgICAgIHN0cm9rZTogIzM3NDE1MTsmI3hhOyAgICAgICAgICAgIHN0cm9rZS13aWR0aDogNDsmI3hhOyAgICAgICAgICAgIH0mI3hhOyAgICAgICAgICAgIC5lbnZlbG9wZSB7JiN4YTsgICAgICAgICAgICBmaWxsOiAjZTVlN2ViOyYjeGE7ICAgICAgICAgICAgc3Ryb2tlOiAjMzc0MTUxOyYjeGE7ICAgICAgICAgICAgc3Ryb2tlLXdpZHRoOiA0OyYjeGE7ICAgICAgICAgICAgfSYjeGE7JiN4YTsgICAgICAgICAgICBAbWVkaWEgKHByZWZlcnMtY29sb3Itc2NoZW1lOiBkYXJrKSB7JiN4YTsgICAgICAgICAgICAuY2xvdWQgeyYjeGE7ICAgICAgICAgICAgZmlsbDp1cmwoI0dyYWRpZW50Q2xvdWREYXJrKTsmI3hhOyAgICAgICAgICAgIHN0cm9rZTogIzZiNzI4MDsmI3hhOyAgICAgICAgICAgIHN0cm9rZS13aWR0aDogNDsmI3hhOyAgICAgICAgICAgIH0mI3hhOyAgICAgICAgICAgIC5lbnZlbG9wZSB7JiN4YTsgICAgICAgICAgICBmaWxsOiAjZjlmYWZiOyYjeGE7ICAgICAgICAgICAgc3Ryb2tlOiAjMzc0MTUxOyYjeGE7ICAgICAgICAgICAgc3Ryb2tlLXdpZHRoOiA0OyYjeGE7ICAgICAgICAgICAgfSYjeGE7ICAgICAgICAgICAgfSYjeGE7ICAgICAgICA8L3N0eWxlPiYjeGE7ICAgIDwvZGVmcz4mI3hhOyAgICA8Zz4mI3hhOyAgICAgICAgPHBhdGggZD0ibSA1OTIgMjcyIEwgMTI1IDI3MyBDIDE3IDI3MCAxNCAxMTkgMTM0IDEyMCBDIDE2NSAtMjkgMzg5IC04IDQyNSA4NCBDIDU2MCAzNiA2NTIgMTUyIDU5MiAyNzIgeiIgY2xhc3M9ImNsb3VkIi8+JiN4YTsgICAgICAgIDxwYXRoIGQ9Im0gNDQzLjgzNiAzMTguOTkgQyA0NTcuMTQ2IDMxOC45OSA0NzAuNDU2IDMwNS42OCA0NzAuNDU2IDI5Mi4zNyBMIDQ3MC40NTYgMTg0LjU1OSBDIDQ3MC40NTYgMTcxLjI0OSA0NTguNDc3IDE1Ny45MzkgNDQ1LjE2NyAxNTcuOTM5IEwgMjAyLjkyNSAxNTcuOTM5IEMgMTg5LjYxNSAxNTcuOTM5IDE3Ny42MzYgMTcyLjU4IDE3Ny42MzYgMTg1Ljg5IEwgMTc3LjYzNiAyOTIuMzcgQyAxNzcuNjM2IDMxMS4wMDQgMTg5LjYxNSAzMTguOTkgMjA5LjU4IDMxOC45OSBMIDQ0My44MzYgMzE4Ljk5IE0gMTg0LjI5MSAxNjguNTg3IEwgMjgyLjc4NSAyMjEuODI3IEMgMzIyLjcxNSAyNDEuNzkyIDMyMi43MTUgMjQxLjc5MiAzNjIuNjQ1IDIyMS44MjcgTCA0NjMuODAxIDE2OC41ODcgTSAyODIuNzg1IDIyMS44MjcgTCAxODQuMjkxIDMxMS4wMDQgTSAzNjIuNjQ1IDIyMS44MjcgTCA0NjEuMTM5IDMxMS4wMDQgeiIgY2xhc3M9ImVudmVsb3BlIi8+JiN4YTsgICAgICAgICYjeGE7ICAgICAgICAmI3hhOyAgICA8L2c+JiN4YTs8L3N2Zz4=;fontFamily=Atkinson Hyperlegible;fontSource=https%3A%2F%2Ffonts.googleapis.com%2Fcss%3Ffamily%3DAtkinson%2BHyperlegible;" parent="1" vertex="1">
          <mxGeometry x="290" y="186.5" width="113.14" height="60" as="geometry" />
        </mxCell>
        <mxCell id="sAlcsNE6bz9asQmO-AkL-14" value="Integration Broker" style="shape=image;verticalLabelPosition=bottom;labelBackgroundColor=none;verticalAlign=top;aspect=fixed;imageAspect=0;image=data:image/svg+xml,PHN2ZyB4bWxucz0iaHR0cDovL3d3dy53My5vcmcvMjAwMC9zdmciIHZpZXdCb3g9IjAgMCA2NjAgMzUwIiB2ZXJzaW9uPSIxLjEiIGhlaWdodD0iMzUwcHQiIHdpZHRoPSI2NjBwdCI+JiN4YTsgICAgPGRlZnM+JiN4YTsgICAgICAgIDxsaW5lYXJHcmFkaWVudCB5Mj0iMSIgeTE9IjAiIHgyPSIwIiB4MT0iMCIgaWQ9IkdyYWRpZW50Q2xvdWQiPiYjeGE7ICAgICAgICAgICAgPHN0b3Agb2Zmc2V0PSIwJSIgc3RvcC1jb2xvcj0iIzZiNzI4MCIvPiYjeGE7ICAgICAgICAgICAgPHN0b3Agb2Zmc2V0PSIxMDAlIiBzdG9wLWNvbG9yPSIjNGI1NTYzIi8+JiN4YTsgICAgICAgIDwvbGluZWFyR3JhZGllbnQ+JiN4YTsgICAgICAgIDxsaW5lYXJHcmFkaWVudCB5Mj0iMSIgeTE9IjAiIHgyPSIwIiB4MT0iMCIgaWQ9IkdyYWRpZW50Q2xvdWREYXJrIj4mI3hhOyAgICAgICAgICAgIDxzdG9wIG9mZnNldD0iMCUiIHN0b3AtY29sb3I9IiNlNWU3ZWIiLz4mI3hhOyAgICAgICAgICAgIDxzdG9wIG9mZnNldD0iMTAwJSIgc3RvcC1jb2xvcj0iI2QxZDVkYiIvPiYjeGE7ICAgICAgICA8L2xpbmVhckdyYWRpZW50PiYjeGE7ICAgICAgICA8c3R5bGUgdHlwZT0idGV4dC9jc3MiPiYjeGE7ICAgICAgICAgICAgLmNsb3VkIHsmI3hhOyAgICAgICAgICAgIGZpbGw6dXJsKCNHcmFkaWVudENsb3VkKTsmI3hhOyAgICAgICAgICAgIHN0cm9rZTogIzM3NDE1MTsmI3hhOyAgICAgICAgICAgIHN0cm9rZS13aWR0aDogNDsmI3hhOyAgICAgICAgICAgIH0mI3hhOyAgICAgICAgICAgIC5lbnZlbG9wZSB7JiN4YTsgICAgICAgICAgICBmaWxsOiAjZTVlN2ViOyYjeGE7ICAgICAgICAgICAgc3Ryb2tlOiAjMzc0MTUxOyYjeGE7ICAgICAgICAgICAgc3Ryb2tlLXdpZHRoOiA0OyYjeGE7ICAgICAgICAgICAgfSYjeGE7JiN4YTsgICAgICAgICAgICBAbWVkaWEgKHByZWZlcnMtY29sb3Itc2NoZW1lOiBkYXJrKSB7JiN4YTsgICAgICAgICAgICAuY2xvdWQgeyYjeGE7ICAgICAgICAgICAgZmlsbDp1cmwoI0dyYWRpZW50Q2xvdWREYXJrKTsmI3hhOyAgICAgICAgICAgIHN0cm9rZTogIzZiNzI4MDsmI3hhOyAgICAgICAgICAgIHN0cm9rZS13aWR0aDogNDsmI3hhOyAgICAgICAgICAgIH0mI3hhOyAgICAgICAgICAgIC5lbnZlbG9wZSB7JiN4YTsgICAgICAgICAgICBmaWxsOiAjZjlmYWZiOyYjeGE7ICAgICAgICAgICAgc3Ryb2tlOiAjMzc0MTUxOyYjeGE7ICAgICAgICAgICAgc3Ryb2tlLXdpZHRoOiA0OyYjeGE7ICAgICAgICAgICAgfSYjeGE7ICAgICAgICAgICAgfSYjeGE7ICAgICAgICA8L3N0eWxlPiYjeGE7ICAgIDwvZGVmcz4mI3hhOyAgICA8Zz4mI3hhOyAgICAgICAgPHBhdGggZD0ibSA1OTIgMjcyIEwgMTI1IDI3MyBDIDE3IDI3MCAxNCAxMTkgMTM0IDEyMCBDIDE2NSAtMjkgMzg5IC04IDQyNSA4NCBDIDU2MCAzNiA2NTIgMTUyIDU5MiAyNzIgeiIgY2xhc3M9ImNsb3VkIi8+JiN4YTsgICAgICAgIDxwYXRoIGQ9Im0gNDQzLjgzNiAzMTguOTkgQyA0NTcuMTQ2IDMxOC45OSA0NzAuNDU2IDMwNS42OCA0NzAuNDU2IDI5Mi4zNyBMIDQ3MC40NTYgMTg0LjU1OSBDIDQ3MC40NTYgMTcxLjI0OSA0NTguNDc3IDE1Ny45MzkgNDQ1LjE2NyAxNTcuOTM5IEwgMjAyLjkyNSAxNTcuOTM5IEMgMTg5LjYxNSAxNTcuOTM5IDE3Ny42MzYgMTcyLjU4IDE3Ny42MzYgMTg1Ljg5IEwgMTc3LjYzNiAyOTIuMzcgQyAxNzcuNjM2IDMxMS4wMDQgMTg5LjYxNSAzMTguOTkgMjA5LjU4IDMxOC45OSBMIDQ0My44MzYgMzE4Ljk5IE0gMTg0LjI5MSAxNjguNTg3IEwgMjgyLjc4NSAyMjEuODI3IEMgMzIyLjcxNSAyNDEuNzkyIDMyMi43MTUgMjQxLjc5MiAzNjIuNjQ1IDIyMS44MjcgTCA0NjMuODAxIDE2OC41ODcgTSAyODIuNzg1IDIyMS44MjcgTCAxODQuMjkxIDMxMS4wMDQgTSAzNjIuNjQ1IDIyMS44MjcgTCA0NjEuMTM5IDMxMS4wMDQgeiIgY2xhc3M9ImVudmVsb3BlIi8+JiN4YTsgICAgICAgICYjeGE7ICAgICAgICAmI3hhOyAgICA8L2c+JiN4YTs8L3N2Zz4=;fontFamily=Atkinson Hyperlegible;fontSource=https%3A%2F%2Ffonts.googleapis.com%2Fcss%3Ffamily%3DAtkinson%2BHyperlegible;" parent="1" vertex="1">
          <mxGeometry x="290" y="46.5" width="113.14" height="60" as="geometry" />
        </mxCell>
      </root>
    </mxGraphModel>
  </diagram>
  <diagram id="yCi-1VGz-EXiX4PHul1R" name="ODSOA">
    <mxGraphModel dx="1185" dy="632" grid="0" gridSize="10" guides="1" tooltips="1" connect="1" arrows="1" fold="1" page="1" pageScale="1" pageWidth="1169" pageHeight="827" math="0" shadow="0">
      <root>
        <mxCell id="0" />
        <mxCell id="1" parent="0" />
        <mxCell id="xs-MprTF5tvxO5WwdqVo-1" value="&lt;font face=&quot;Atkinson Hyperlegible&quot;&gt;Integration Platform&lt;/font&gt;" style="rounded=1;whiteSpace=wrap;html=1;dashed=1;dashPattern=12 12;glass=0;shadow=1;textShadow=1;strokeColor=none;fillColor=#d1d5db;verticalAlign=top;gradientColor=none;" vertex="1" parent="1">
          <mxGeometry x="420" y="30" width="350" height="339" as="geometry" />
        </mxCell>
        <mxCell id="xs-MprTF5tvxO5WwdqVo-13" style="edgeStyle=orthogonalEdgeStyle;rounded=0;orthogonalLoop=1;jettySize=auto;html=1;" edge="1" parent="1" source="0lws74I9KLhbYAXbmXYY-1" target="xs-MprTF5tvxO5WwdqVo-6">
          <mxGeometry relative="1" as="geometry">
            <Array as="points">
              <mxPoint x="425" y="86" />
              <mxPoint x="425" y="86" />
            </Array>
          </mxGeometry>
        </mxCell>
        <mxCell id="0lws74I9KLhbYAXbmXYY-1" value="" style="shape=image;verticalLabelPosition=bottom;labelBackgroundColor=none;verticalAlign=top;aspect=fixed;imageAspect=0;image=data:image/svg+xml,PHN2ZyB4bWxucz0iaHR0cDovL3d3dy53My5vcmcvMjAwMC9zdmciIHZpZXdCb3g9IjAgMCA4NTAgODUwIiB2ZXJzaW9uPSIxLjEiIGhlaWdodD0iODUwcHQiIHdpZHRoPSI4NTBwdCI+JiN4YTsgICAgPHN0eWxlIHR5cGU9InRleHQvY3NzIj4mI3hhOyAgICAgICAgLnRvcCB7JiN4YTsgICAgICAgIGZpbGw6IzZiNzI4MDsmI3hhOyAgICAgICAgfSYjeGE7ICAgICAgICAubGVmdCB7JiN4YTsgICAgICAgIGZpbGw6ICM0YjU1NjM7JiN4YTsgICAgICAgIH0mI3hhOyAgICAgICAgLnJpZ2h0IHsmI3hhOyAgICAgICAgZmlsbDojMWYyOTM3OyYjeGE7ICAgICAgICB9JiN4YTsmI3hhOyAgICAgICAgQG1lZGlhIChwcmVmZXJzLWNvbG9yLXNjaGVtZTogZGFyaykgeyYjeGE7ICAgICAgICAudG9wIHsmI3hhOyAgICAgICAgZmlsbDojZjlmYWZiOyYjeGE7ICAgICAgICB9JiN4YTsgICAgICAgIC5sZWZ0IHsmI3hhOyAgICAgICAgZmlsbDogI2U1ZTdlYjsmI3hhOyAgICAgICAgfSYjeGE7ICAgICAgICAucmlnaHQgeyYjeGE7ICAgICAgICBmaWxsOiAjOWNhM2FmOyYjeGE7ICAgICAgICB9JiN4YTsgICAgICAgIH0mI3hhOyAgICA8L3N0eWxlPiYjeGE7ICAgIDxnPiYjeGE7ICAgICAgICA8cGF0aCBkPSJNIDIzMCAyODAgbCAxNTcuMTggNzIuMzUyIGMgMjAuNjY4IDkuNTE1NiA1NC40OTYgOS41MTU2IDc1LjE0NSAwIGwgMTMyLjY0IC02MS4wNTUgbCAyMTcuNTMgLTEwMy43NCBjIC00LjU3NDIgLTMuNDMzNiAtOS4yNSAtNi41MTU2IC0xNC4xOTEgLTguNzczNCBsIC0zMTcuMDkgLTE0Ni4wMSBjIC0zMC45OTIgLTE0LjI3NyAtODEuNzQ2IC0xNC4yNzcgLTExMi43NiAwIGwgLTMxNy4xOSAxNDYuMDEgYyAtNS4wNzAzIDIuMzE2NCAtOS44NjcyIDUuNTIzNCAtMTQuNTQzIDkuMDYyNSB6IiBjbGFzcz0idG9wIi8+JiN4YTsgICAgICAgIDxwYXRoIGQ9Im0gNDIzLjM0IDQyMC45NiBjIDAgLTIyLjgwMSAtMTYuOTAyIC00OS4xNiAtMzcuNTc0IC01OC42OTUgbCAtMjM5LjQyIC0xMTAuMTUgYyAtMC4yMDcgLTAuMDgyIC0wLjM3MTEgLTAuMjUgLTAuNTc4MSAtMC4zNTE2IGwgLTEwOC4yNSAtNDkuODgzIHYgMzcyLjI1IGMgMCAzNC4xMzcgMjUuMzg3IDczLjczOCA1Ni4zOTggODguMDM1IGwgMzE3LjE5IDE0Ni4wMyBjIDIuODEyNSAxLjMwNDcgNS45NTcgMi4zMzk4IDkuMDYyNSAzLjM5NDUgbCAzLjE0NDUgLTE5My44IGwgMC4wMDM5IC0xOTYuODIgeiIgY2xhc3M9ImxlZnQiLz4mI3hhOyAgICAgICAgPHBhdGggZD0ibSA3MDguNTkgMjUwLjk2IGMgLTAuNDMzNiAwLjIyNjYgLTAuODA4NiAwLjUzOTEgLTEuMjgxMiAwLjc2NTYgbCAtMjM5LjQ2IDExMC4yMSBjIC0yMC42OTEgOS40OTYxIC0zNy41NzQgMzUuOTE4IC0zNy41NzQgNTguNjc2IHYgMTYyLjEyIGwgMC40NzY2IC0wLjAxOTUgbCAtMC43NDYxIDIyOS44IGMgNC40Njg4IC0xLjM0MzggOC43MTA5IC0yLjkzNzUgMTIuNjIxIC00LjczODMgbCAzMTcuMTcgLTE0Ni4wMyBjIDMwLjk5MiAtMTQuMjc3IDU2LjM5OCAtNTMuODc1IDU2LjM5OCAtODguMDM1IGwgLTAuMDYyNSAtMzcyLjM5IHoiIGNsYXNzPSJyaWdodCIvPiYjeGE7ICAgIDwvZz4mI3hhOzwvc3ZnPg==;shadow=1;textShadow=1;fontFamily=Atkinson Hyperlegible;fontSource=https%3A%2F%2Ffonts.googleapis.com%2Fcss%3Ffamily%3DAtkinson%2BHyperlegible;" parent="1" vertex="1">
          <mxGeometry x="330" y="50" width="60" height="60" as="geometry" />
        </mxCell>
        <mxCell id="0lws74I9KLhbYAXbmXYY-2" value="Client" style="text;html=1;align=center;verticalAlign=middle;whiteSpace=wrap;rounded=0;fontFamily=Atkinson Hyperlegible;fontSource=https%3A%2F%2Ffonts.googleapis.com%2Fcss%3Ffamily%3DAtkinson%2BHyperlegible;" parent="1" vertex="1">
          <mxGeometry x="330" y="100" width="60" height="30" as="geometry" />
        </mxCell>
        <mxCell id="xs-MprTF5tvxO5WwdqVo-17" style="edgeStyle=orthogonalEdgeStyle;rounded=0;orthogonalLoop=1;jettySize=auto;html=1;" edge="1" parent="1" source="0lws74I9KLhbYAXbmXYY-3" target="xs-MprTF5tvxO5WwdqVo-8">
          <mxGeometry relative="1" as="geometry">
            <Array as="points">
              <mxPoint x="426" y="154" />
              <mxPoint x="426" y="154" />
            </Array>
          </mxGeometry>
        </mxCell>
        <mxCell id="0lws74I9KLhbYAXbmXYY-3" value="" style="shape=image;verticalLabelPosition=bottom;labelBackgroundColor=none;verticalAlign=top;aspect=fixed;imageAspect=0;image=data:image/svg+xml,PHN2ZyB4bWxucz0iaHR0cDovL3d3dy53My5vcmcvMjAwMC9zdmciIHZpZXdCb3g9IjAgMCA4NTAgODUwIiB2ZXJzaW9uPSIxLjEiIGhlaWdodD0iODUwcHQiIHdpZHRoPSI4NTBwdCI+JiN4YTsgICAgPHN0eWxlIHR5cGU9InRleHQvY3NzIj4mI3hhOyAgICAgICAgLnRvcCB7JiN4YTsgICAgICAgIGZpbGw6IzZiNzI4MDsmI3hhOyAgICAgICAgfSYjeGE7ICAgICAgICAubGVmdCB7JiN4YTsgICAgICAgIGZpbGw6ICM0YjU1NjM7JiN4YTsgICAgICAgIH0mI3hhOyAgICAgICAgLnJpZ2h0IHsmI3hhOyAgICAgICAgZmlsbDojMWYyOTM3OyYjeGE7ICAgICAgICB9JiN4YTsmI3hhOyAgICAgICAgQG1lZGlhIChwcmVmZXJzLWNvbG9yLXNjaGVtZTogZGFyaykgeyYjeGE7ICAgICAgICAudG9wIHsmI3hhOyAgICAgICAgZmlsbDojZjlmYWZiOyYjeGE7ICAgICAgICB9JiN4YTsgICAgICAgIC5sZWZ0IHsmI3hhOyAgICAgICAgZmlsbDogI2U1ZTdlYjsmI3hhOyAgICAgICAgfSYjeGE7ICAgICAgICAucmlnaHQgeyYjeGE7ICAgICAgICBmaWxsOiAjOWNhM2FmOyYjeGE7ICAgICAgICB9JiN4YTsgICAgICAgIH0mI3hhOyAgICA8L3N0eWxlPiYjeGE7ICAgIDxnPiYjeGE7ICAgICAgICA8cGF0aCBkPSJNIDIzMCAyODAgbCAxNTcuMTggNzIuMzUyIGMgMjAuNjY4IDkuNTE1NiA1NC40OTYgOS41MTU2IDc1LjE0NSAwIGwgMTMyLjY0IC02MS4wNTUgbCAyMTcuNTMgLTEwMy43NCBjIC00LjU3NDIgLTMuNDMzNiAtOS4yNSAtNi41MTU2IC0xNC4xOTEgLTguNzczNCBsIC0zMTcuMDkgLTE0Ni4wMSBjIC0zMC45OTIgLTE0LjI3NyAtODEuNzQ2IC0xNC4yNzcgLTExMi43NiAwIGwgLTMxNy4xOSAxNDYuMDEgYyAtNS4wNzAzIDIuMzE2NCAtOS44NjcyIDUuNTIzNCAtMTQuNTQzIDkuMDYyNSB6IiBjbGFzcz0idG9wIi8+JiN4YTsgICAgICAgIDxwYXRoIGQ9Im0gNDIzLjM0IDQyMC45NiBjIDAgLTIyLjgwMSAtMTYuOTAyIC00OS4xNiAtMzcuNTc0IC01OC42OTUgbCAtMjM5LjQyIC0xMTAuMTUgYyAtMC4yMDcgLTAuMDgyIC0wLjM3MTEgLTAuMjUgLTAuNTc4MSAtMC4zNTE2IGwgLTEwOC4yNSAtNDkuODgzIHYgMzcyLjI1IGMgMCAzNC4xMzcgMjUuMzg3IDczLjczOCA1Ni4zOTggODguMDM1IGwgMzE3LjE5IDE0Ni4wMyBjIDIuODEyNSAxLjMwNDcgNS45NTcgMi4zMzk4IDkuMDYyNSAzLjM5NDUgbCAzLjE0NDUgLTE5My44IGwgMC4wMDM5IC0xOTYuODIgeiIgY2xhc3M9ImxlZnQiLz4mI3hhOyAgICAgICAgPHBhdGggZD0ibSA3MDguNTkgMjUwLjk2IGMgLTAuNDMzNiAwLjIyNjYgLTAuODA4NiAwLjUzOTEgLTEuMjgxMiAwLjc2NTYgbCAtMjM5LjQ2IDExMC4yMSBjIC0yMC42OTEgOS40OTYxIC0zNy41NzQgMzUuOTE4IC0zNy41NzQgNTguNjc2IHYgMTYyLjEyIGwgMC40NzY2IC0wLjAxOTUgbCAtMC43NDYxIDIyOS44IGMgNC40Njg4IC0xLjM0MzggOC43MTA5IC0yLjkzNzUgMTIuNjIxIC00LjczODMgbCAzMTcuMTcgLTE0Ni4wMyBjIDMwLjk5MiAtMTQuMjc3IDU2LjM5OCAtNTMuODc1IDU2LjM5OCAtODguMDM1IGwgLTAuMDYyNSAtMzcyLjM5IHoiIGNsYXNzPSJyaWdodCIvPiYjeGE7ICAgIDwvZz4mI3hhOzwvc3ZnPg==;shadow=1;textShadow=1;fontFamily=Atkinson Hyperlegible;fontSource=https%3A%2F%2Ffonts.googleapis.com%2Fcss%3Ffamily%3DAtkinson%2BHyperlegible;" parent="1" vertex="1">
          <mxGeometry x="330" y="130" width="60" height="60" as="geometry" />
        </mxCell>
        <mxCell id="0lws74I9KLhbYAXbmXYY-4" value="Client" style="text;html=1;align=center;verticalAlign=middle;whiteSpace=wrap;rounded=0;fontFamily=Atkinson Hyperlegible;fontSource=https%3A%2F%2Ffonts.googleapis.com%2Fcss%3Ffamily%3DAtkinson%2BHyperlegible;" parent="1" vertex="1">
          <mxGeometry x="330" y="180" width="60" height="30" as="geometry" />
        </mxCell>
        <mxCell id="xs-MprTF5tvxO5WwdqVo-30" style="edgeStyle=orthogonalEdgeStyle;rounded=0;orthogonalLoop=1;jettySize=auto;html=1;dashed=1;" edge="1" parent="1" source="xs-MprTF5tvxO5WwdqVo-2" target="xs-MprTF5tvxO5WwdqVo-10">
          <mxGeometry relative="1" as="geometry">
            <Array as="points">
              <mxPoint x="770" y="76" />
              <mxPoint x="770" y="76" />
            </Array>
          </mxGeometry>
        </mxCell>
        <mxCell id="xs-MprTF5tvxO5WwdqVo-2" value="" style="shape=image;verticalLabelPosition=bottom;labelBackgroundColor=none;verticalAlign=top;aspect=fixed;imageAspect=0;image=data:image/svg+xml,PHN2ZyB4bWxucz0iaHR0cDovL3d3dy53My5vcmcvMjAwMC9zdmciIHZpZXdCb3g9IjAgMCA4NTAgODUwIiB2ZXJzaW9uPSIxLjEiIGhlaWdodD0iODUwcHQiIHdpZHRoPSI4NTBwdCI+JiN4YTsgICAgPHN0eWxlIHR5cGU9InRleHQvY3NzIj4mI3hhOyAgICAgICAgLnRvcCB7JiN4YTsgICAgICAgIGZpbGw6IzZiNzI4MDsmI3hhOyAgICAgICAgfSYjeGE7ICAgICAgICAubGVmdCB7JiN4YTsgICAgICAgIGZpbGw6ICM0YjU1NjM7JiN4YTsgICAgICAgIH0mI3hhOyAgICAgICAgLnJpZ2h0IHsmI3hhOyAgICAgICAgZmlsbDojMWYyOTM3OyYjeGE7ICAgICAgICB9JiN4YTsmI3hhOyAgICAgICAgQG1lZGlhIChwcmVmZXJzLWNvbG9yLXNjaGVtZTogZGFyaykgeyYjeGE7ICAgICAgICAudG9wIHsmI3hhOyAgICAgICAgZmlsbDojZjlmYWZiOyYjeGE7ICAgICAgICB9JiN4YTsgICAgICAgIC5sZWZ0IHsmI3hhOyAgICAgICAgZmlsbDogI2U1ZTdlYjsmI3hhOyAgICAgICAgfSYjeGE7ICAgICAgICAucmlnaHQgeyYjeGE7ICAgICAgICBmaWxsOiAjOWNhM2FmOyYjeGE7ICAgICAgICB9JiN4YTsgICAgICAgIH0mI3hhOyAgICA8L3N0eWxlPiYjeGE7ICAgIDxnPiYjeGE7ICAgICAgICA8cGF0aCBkPSJNIDIzMCAyODAgbCAxNTcuMTggNzIuMzUyIGMgMjAuNjY4IDkuNTE1NiA1NC40OTYgOS41MTU2IDc1LjE0NSAwIGwgMTMyLjY0IC02MS4wNTUgbCAyMTcuNTMgLTEwMy43NCBjIC00LjU3NDIgLTMuNDMzNiAtOS4yNSAtNi41MTU2IC0xNC4xOTEgLTguNzczNCBsIC0zMTcuMDkgLTE0Ni4wMSBjIC0zMC45OTIgLTE0LjI3NyAtODEuNzQ2IC0xNC4yNzcgLTExMi43NiAwIGwgLTMxNy4xOSAxNDYuMDEgYyAtNS4wNzAzIDIuMzE2NCAtOS44NjcyIDUuNTIzNCAtMTQuNTQzIDkuMDYyNSB6IiBjbGFzcz0idG9wIi8+JiN4YTsgICAgICAgIDxwYXRoIGQ9Im0gNDIzLjM0IDQyMC45NiBjIDAgLTIyLjgwMSAtMTYuOTAyIC00OS4xNiAtMzcuNTc0IC01OC42OTUgbCAtMjM5LjQyIC0xMTAuMTUgYyAtMC4yMDcgLTAuMDgyIC0wLjM3MTEgLTAuMjUgLTAuNTc4MSAtMC4zNTE2IGwgLTEwOC4yNSAtNDkuODgzIHYgMzcyLjI1IGMgMCAzNC4xMzcgMjUuMzg3IDczLjczOCA1Ni4zOTggODguMDM1IGwgMzE3LjE5IDE0Ni4wMyBjIDIuODEyNSAxLjMwNDcgNS45NTcgMi4zMzk4IDkuMDYyNSAzLjM5NDUgbCAzLjE0NDUgLTE5My44IGwgMC4wMDM5IC0xOTYuODIgeiIgY2xhc3M9ImxlZnQiLz4mI3hhOyAgICAgICAgPHBhdGggZD0ibSA3MDguNTkgMjUwLjk2IGMgLTAuNDMzNiAwLjIyNjYgLTAuODA4NiAwLjUzOTEgLTEuMjgxMiAwLjc2NTYgbCAtMjM5LjQ2IDExMC4yMSBjIC0yMC42OTEgOS40OTYxIC0zNy41NzQgMzUuOTE4IC0zNy41NzQgNTguNjc2IHYgMTYyLjEyIGwgMC40NzY2IC0wLjAxOTUgbCAtMC43NDYxIDIyOS44IGMgNC40Njg4IC0xLjM0MzggOC43MTA5IC0yLjkzNzUgMTIuNjIxIC00LjczODMgbCAzMTcuMTcgLTE0Ni4wMyBjIDMwLjk5MiAtMTQuMjc3IDU2LjM5OCAtNTMuODc1IDU2LjM5OCAtODguMDM1IGwgLTAuMDYyNSAtMzcyLjM5IHoiIGNsYXNzPSJyaWdodCIvPiYjeGE7ICAgIDwvZz4mI3hhOzwvc3ZnPg==;shadow=1;textShadow=1;fontFamily=Atkinson Hyperlegible;fontSource=https%3A%2F%2Ffonts.googleapis.com%2Fcss%3Ffamily%3DAtkinson%2BHyperlegible;" vertex="1" parent="1">
          <mxGeometry x="810" y="50" width="60" height="60" as="geometry" />
        </mxCell>
        <mxCell id="xs-MprTF5tvxO5WwdqVo-3" value="Provider" style="text;html=1;align=center;verticalAlign=middle;whiteSpace=wrap;rounded=0;fontFamily=Atkinson Hyperlegible;fontSource=https%3A%2F%2Ffonts.googleapis.com%2Fcss%3Ffamily%3DAtkinson%2BHyperlegible;" vertex="1" parent="1">
          <mxGeometry x="810" y="100" width="60" height="30" as="geometry" />
        </mxCell>
        <mxCell id="xs-MprTF5tvxO5WwdqVo-4" value="" style="shape=image;verticalLabelPosition=bottom;labelBackgroundColor=none;verticalAlign=top;aspect=fixed;imageAspect=0;image=data:image/svg+xml,PHN2ZyB4bWxucz0iaHR0cDovL3d3dy53My5vcmcvMjAwMC9zdmciIHZpZXdCb3g9IjAgMCA4NTAgODUwIiB2ZXJzaW9uPSIxLjEiIGhlaWdodD0iODUwcHQiIHdpZHRoPSI4NTBwdCI+JiN4YTsgICAgPHN0eWxlIHR5cGU9InRleHQvY3NzIj4mI3hhOyAgICAgICAgLnRvcCB7JiN4YTsgICAgICAgIGZpbGw6IzZiNzI4MDsmI3hhOyAgICAgICAgfSYjeGE7ICAgICAgICAubGVmdCB7JiN4YTsgICAgICAgIGZpbGw6ICM0YjU1NjM7JiN4YTsgICAgICAgIH0mI3hhOyAgICAgICAgLnJpZ2h0IHsmI3hhOyAgICAgICAgZmlsbDojMWYyOTM3OyYjeGE7ICAgICAgICB9JiN4YTsmI3hhOyAgICAgICAgQG1lZGlhIChwcmVmZXJzLWNvbG9yLXNjaGVtZTogZGFyaykgeyYjeGE7ICAgICAgICAudG9wIHsmI3hhOyAgICAgICAgZmlsbDojZjlmYWZiOyYjeGE7ICAgICAgICB9JiN4YTsgICAgICAgIC5sZWZ0IHsmI3hhOyAgICAgICAgZmlsbDogI2U1ZTdlYjsmI3hhOyAgICAgICAgfSYjeGE7ICAgICAgICAucmlnaHQgeyYjeGE7ICAgICAgICBmaWxsOiAjOWNhM2FmOyYjeGE7ICAgICAgICB9JiN4YTsgICAgICAgIH0mI3hhOyAgICA8L3N0eWxlPiYjeGE7ICAgIDxnPiYjeGE7ICAgICAgICA8cGF0aCBkPSJNIDIzMCAyODAgbCAxNTcuMTggNzIuMzUyIGMgMjAuNjY4IDkuNTE1NiA1NC40OTYgOS41MTU2IDc1LjE0NSAwIGwgMTMyLjY0IC02MS4wNTUgbCAyMTcuNTMgLTEwMy43NCBjIC00LjU3NDIgLTMuNDMzNiAtOS4yNSAtNi41MTU2IC0xNC4xOTEgLTguNzczNCBsIC0zMTcuMDkgLTE0Ni4wMSBjIC0zMC45OTIgLTE0LjI3NyAtODEuNzQ2IC0xNC4yNzcgLTExMi43NiAwIGwgLTMxNy4xOSAxNDYuMDEgYyAtNS4wNzAzIDIuMzE2NCAtOS44NjcyIDUuNTIzNCAtMTQuNTQzIDkuMDYyNSB6IiBjbGFzcz0idG9wIi8+JiN4YTsgICAgICAgIDxwYXRoIGQ9Im0gNDIzLjM0IDQyMC45NiBjIDAgLTIyLjgwMSAtMTYuOTAyIC00OS4xNiAtMzcuNTc0IC01OC42OTUgbCAtMjM5LjQyIC0xMTAuMTUgYyAtMC4yMDcgLTAuMDgyIC0wLjM3MTEgLTAuMjUgLTAuNTc4MSAtMC4zNTE2IGwgLTEwOC4yNSAtNDkuODgzIHYgMzcyLjI1IGMgMCAzNC4xMzcgMjUuMzg3IDczLjczOCA1Ni4zOTggODguMDM1IGwgMzE3LjE5IDE0Ni4wMyBjIDIuODEyNSAxLjMwNDcgNS45NTcgMi4zMzk4IDkuMDYyNSAzLjM5NDUgbCAzLjE0NDUgLTE5My44IGwgMC4wMDM5IC0xOTYuODIgeiIgY2xhc3M9ImxlZnQiLz4mI3hhOyAgICAgICAgPHBhdGggZD0ibSA3MDguNTkgMjUwLjk2IGMgLTAuNDMzNiAwLjIyNjYgLTAuODA4NiAwLjUzOTEgLTEuMjgxMiAwLjc2NTYgbCAtMjM5LjQ2IDExMC4yMSBjIC0yMC42OTEgOS40OTYxIC0zNy41NzQgMzUuOTE4IC0zNy41NzQgNTguNjc2IHYgMTYyLjEyIGwgMC40NzY2IC0wLjAxOTUgbCAtMC43NDYxIDIyOS44IGMgNC40Njg4IC0xLjM0MzggOC43MTA5IC0yLjkzNzUgMTIuNjIxIC00LjczODMgbCAzMTcuMTcgLTE0Ni4wMyBjIDMwLjk5MiAtMTQuMjc3IDU2LjM5OCAtNTMuODc1IDU2LjM5OCAtODguMDM1IGwgLTAuMDYyNSAtMzcyLjM5IHoiIGNsYXNzPSJyaWdodCIvPiYjeGE7ICAgIDwvZz4mI3hhOzwvc3ZnPg==;shadow=1;textShadow=1;fontFamily=Atkinson Hyperlegible;fontSource=https%3A%2F%2Ffonts.googleapis.com%2Fcss%3Ffamily%3DAtkinson%2BHyperlegible;" vertex="1" parent="1">
          <mxGeometry x="810" y="130" width="60" height="60" as="geometry" />
        </mxCell>
        <mxCell id="xs-MprTF5tvxO5WwdqVo-5" value="Provider" style="text;html=1;align=center;verticalAlign=middle;whiteSpace=wrap;rounded=0;fontFamily=Atkinson Hyperlegible;fontSource=https%3A%2F%2Ffonts.googleapis.com%2Fcss%3Ffamily%3DAtkinson%2BHyperlegible;" vertex="1" parent="1">
          <mxGeometry x="810" y="180" width="60" height="30" as="geometry" />
        </mxCell>
        <mxCell id="xs-MprTF5tvxO5WwdqVo-14" style="edgeStyle=orthogonalEdgeStyle;rounded=0;orthogonalLoop=1;jettySize=auto;html=1;" edge="1" parent="1" source="xs-MprTF5tvxO5WwdqVo-6" target="xs-MprTF5tvxO5WwdqVo-9">
          <mxGeometry relative="1" as="geometry">
            <Array as="points">
              <mxPoint x="528" y="86" />
              <mxPoint x="528" y="110" />
            </Array>
          </mxGeometry>
        </mxCell>
        <mxCell id="xs-MprTF5tvxO5WwdqVo-32" style="edgeStyle=orthogonalEdgeStyle;rounded=0;orthogonalLoop=1;jettySize=auto;html=1;dashed=1;" edge="1" parent="1" source="xs-MprTF5tvxO5WwdqVo-6" target="0lws74I9KLhbYAXbmXYY-1">
          <mxGeometry relative="1" as="geometry">
            <Array as="points">
              <mxPoint x="425" y="76" />
              <mxPoint x="425" y="76" />
            </Array>
          </mxGeometry>
        </mxCell>
        <mxCell id="xs-MprTF5tvxO5WwdqVo-6" value="" style="shape=image;verticalLabelPosition=bottom;labelBackgroundColor=none;verticalAlign=top;aspect=fixed;imageAspect=0;image=data:image/svg+xml,PHN2ZyB4bWxucz0iaHR0cDovL3d3dy53My5vcmcvMjAwMC9zdmciIHZpZXdCb3g9IjAgMCA4NTAgODUwIiB2ZXJzaW9uPSIxLjEiIGhlaWdodD0iODUwcHQiIHdpZHRoPSI4NTBwdCI+JiN4YTsgICAgPHN0eWxlIHR5cGU9InRleHQvY3NzIj4mI3hhOyAgICAgICAgLnRvcCB7JiN4YTsgICAgICAgIGZpbGw6IzZiNzI4MDsmI3hhOyAgICAgICAgfSYjeGE7ICAgICAgICAubGVmdCB7JiN4YTsgICAgICAgIGZpbGw6ICM0YjU1NjM7JiN4YTsgICAgICAgIH0mI3hhOyAgICAgICAgLnJpZ2h0IHsmI3hhOyAgICAgICAgZmlsbDojMWYyOTM3OyYjeGE7ICAgICAgICB9JiN4YTsmI3hhOyAgICAgICAgQG1lZGlhIChwcmVmZXJzLWNvbG9yLXNjaGVtZTogZGFyaykgeyYjeGE7ICAgICAgICAudG9wIHsmI3hhOyAgICAgICAgZmlsbDojZjlmYWZiOyYjeGE7ICAgICAgICB9JiN4YTsgICAgICAgIC5sZWZ0IHsmI3hhOyAgICAgICAgZmlsbDogI2U1ZTdlYjsmI3hhOyAgICAgICAgfSYjeGE7ICAgICAgICAucmlnaHQgeyYjeGE7ICAgICAgICBmaWxsOiAjOWNhM2FmOyYjeGE7ICAgICAgICB9JiN4YTsgICAgICAgIH0mI3hhOyAgICA8L3N0eWxlPiYjeGE7ICAgIDxnPiYjeGE7ICAgICAgICA8cGF0aCBkPSJNIDIzMCAyODAgbCAxNTcuMTggNzIuMzUyIGMgMjAuNjY4IDkuNTE1NiA1NC40OTYgOS41MTU2IDc1LjE0NSAwIGwgMTMyLjY0IC02MS4wNTUgbCAyMTcuNTMgLTEwMy43NCBjIC00LjU3NDIgLTMuNDMzNiAtOS4yNSAtNi41MTU2IC0xNC4xOTEgLTguNzczNCBsIC0zMTcuMDkgLTE0Ni4wMSBjIC0zMC45OTIgLTE0LjI3NyAtODEuNzQ2IC0xNC4yNzcgLTExMi43NiAwIGwgLTMxNy4xOSAxNDYuMDEgYyAtNS4wNzAzIDIuMzE2NCAtOS44NjcyIDUuNTIzNCAtMTQuNTQzIDkuMDYyNSB6IiBjbGFzcz0idG9wIi8+JiN4YTsgICAgICAgIDxwYXRoIGQ9Im0gNDIzLjM0IDQyMC45NiBjIDAgLTIyLjgwMSAtMTYuOTAyIC00OS4xNiAtMzcuNTc0IC01OC42OTUgbCAtMjM5LjQyIC0xMTAuMTUgYyAtMC4yMDcgLTAuMDgyIC0wLjM3MTEgLTAuMjUgLTAuNTc4MSAtMC4zNTE2IGwgLTEwOC4yNSAtNDkuODgzIHYgMzcyLjI1IGMgMCAzNC4xMzcgMjUuMzg3IDczLjczOCA1Ni4zOTggODguMDM1IGwgMzE3LjE5IDE0Ni4wMyBjIDIuODEyNSAxLjMwNDcgNS45NTcgMi4zMzk4IDkuMDYyNSAzLjM5NDUgbCAzLjE0NDUgLTE5My44IGwgMC4wMDM5IC0xOTYuODIgeiIgY2xhc3M9ImxlZnQiLz4mI3hhOyAgICAgICAgPHBhdGggZD0ibSA3MDguNTkgMjUwLjk2IGMgLTAuNDMzNiAwLjIyNjYgLTAuODA4NiAwLjUzOTEgLTEuMjgxMiAwLjc2NTYgbCAtMjM5LjQ2IDExMC4yMSBjIC0yMC42OTEgOS40OTYxIC0zNy41NzQgMzUuOTE4IC0zNy41NzQgNTguNjc2IHYgMTYyLjEyIGwgMC40NzY2IC0wLjAxOTUgbCAtMC43NDYxIDIyOS44IGMgNC40Njg4IC0xLjM0MzggOC43MTA5IC0yLjkzNzUgMTIuNjIxIC00LjczODMgbCAzMTcuMTcgLTE0Ni4wMyBjIDMwLjk5MiAtMTQuMjc3IDU2LjM5OCAtNTMuODc1IDU2LjM5OCAtODguMDM1IGwgLTAuMDYyNSAtMzcyLjM5IHoiIGNsYXNzPSJyaWdodCIvPiYjeGE7ICAgIDwvZz4mI3hhOzwvc3ZnPg==;shadow=1;textShadow=1;fontFamily=Atkinson Hyperlegible;fontSource=https%3A%2F%2Ffonts.googleapis.com%2Fcss%3Ffamily%3DAtkinson%2BHyperlegible;" vertex="1" parent="1">
          <mxGeometry x="460" y="65" width="30" height="30" as="geometry" />
        </mxCell>
        <mxCell id="xs-MprTF5tvxO5WwdqVo-18" style="edgeStyle=orthogonalEdgeStyle;rounded=0;orthogonalLoop=1;jettySize=auto;html=1;" edge="1" parent="1" source="xs-MprTF5tvxO5WwdqVo-8" target="xs-MprTF5tvxO5WwdqVo-9">
          <mxGeometry relative="1" as="geometry">
            <Array as="points">
              <mxPoint x="528" y="154" />
              <mxPoint x="528" y="120" />
            </Array>
          </mxGeometry>
        </mxCell>
        <mxCell id="fAuRe4YFzYjmmBLXa14k-1" style="edgeStyle=orthogonalEdgeStyle;rounded=0;orthogonalLoop=1;jettySize=auto;html=1;dashed=1;" edge="1" parent="1" source="xs-MprTF5tvxO5WwdqVo-8" target="0lws74I9KLhbYAXbmXYY-3">
          <mxGeometry relative="1" as="geometry">
            <Array as="points">
              <mxPoint x="425" y="163" />
              <mxPoint x="425" y="163" />
            </Array>
          </mxGeometry>
        </mxCell>
        <mxCell id="xs-MprTF5tvxO5WwdqVo-8" value="" style="shape=image;verticalLabelPosition=bottom;labelBackgroundColor=none;verticalAlign=top;aspect=fixed;imageAspect=0;image=data:image/svg+xml,PHN2ZyB4bWxucz0iaHR0cDovL3d3dy53My5vcmcvMjAwMC9zdmciIHZpZXdCb3g9IjAgMCA4NTAgODUwIiB2ZXJzaW9uPSIxLjEiIGhlaWdodD0iODUwcHQiIHdpZHRoPSI4NTBwdCI+JiN4YTsgICAgPHN0eWxlIHR5cGU9InRleHQvY3NzIj4mI3hhOyAgICAgICAgLnRvcCB7JiN4YTsgICAgICAgIGZpbGw6IzZiNzI4MDsmI3hhOyAgICAgICAgfSYjeGE7ICAgICAgICAubGVmdCB7JiN4YTsgICAgICAgIGZpbGw6ICM0YjU1NjM7JiN4YTsgICAgICAgIH0mI3hhOyAgICAgICAgLnJpZ2h0IHsmI3hhOyAgICAgICAgZmlsbDojMWYyOTM3OyYjeGE7ICAgICAgICB9JiN4YTsmI3hhOyAgICAgICAgQG1lZGlhIChwcmVmZXJzLWNvbG9yLXNjaGVtZTogZGFyaykgeyYjeGE7ICAgICAgICAudG9wIHsmI3hhOyAgICAgICAgZmlsbDojZjlmYWZiOyYjeGE7ICAgICAgICB9JiN4YTsgICAgICAgIC5sZWZ0IHsmI3hhOyAgICAgICAgZmlsbDogI2U1ZTdlYjsmI3hhOyAgICAgICAgfSYjeGE7ICAgICAgICAucmlnaHQgeyYjeGE7ICAgICAgICBmaWxsOiAjOWNhM2FmOyYjeGE7ICAgICAgICB9JiN4YTsgICAgICAgIH0mI3hhOyAgICA8L3N0eWxlPiYjeGE7ICAgIDxnPiYjeGE7ICAgICAgICA8cGF0aCBkPSJNIDIzMCAyODAgbCAxNTcuMTggNzIuMzUyIGMgMjAuNjY4IDkuNTE1NiA1NC40OTYgOS41MTU2IDc1LjE0NSAwIGwgMTMyLjY0IC02MS4wNTUgbCAyMTcuNTMgLTEwMy43NCBjIC00LjU3NDIgLTMuNDMzNiAtOS4yNSAtNi41MTU2IC0xNC4xOTEgLTguNzczNCBsIC0zMTcuMDkgLTE0Ni4wMSBjIC0zMC45OTIgLTE0LjI3NyAtODEuNzQ2IC0xNC4yNzcgLTExMi43NiAwIGwgLTMxNy4xOSAxNDYuMDEgYyAtNS4wNzAzIDIuMzE2NCAtOS44NjcyIDUuNTIzNCAtMTQuNTQzIDkuMDYyNSB6IiBjbGFzcz0idG9wIi8+JiN4YTsgICAgICAgIDxwYXRoIGQ9Im0gNDIzLjM0IDQyMC45NiBjIDAgLTIyLjgwMSAtMTYuOTAyIC00OS4xNiAtMzcuNTc0IC01OC42OTUgbCAtMjM5LjQyIC0xMTAuMTUgYyAtMC4yMDcgLTAuMDgyIC0wLjM3MTEgLTAuMjUgLTAuNTc4MSAtMC4zNTE2IGwgLTEwOC4yNSAtNDkuODgzIHYgMzcyLjI1IGMgMCAzNC4xMzcgMjUuMzg3IDczLjczOCA1Ni4zOTggODguMDM1IGwgMzE3LjE5IDE0Ni4wMyBjIDIuODEyNSAxLjMwNDcgNS45NTcgMi4zMzk4IDkuMDYyNSAzLjM5NDUgbCAzLjE0NDUgLTE5My44IGwgMC4wMDM5IC0xOTYuODIgeiIgY2xhc3M9ImxlZnQiLz4mI3hhOyAgICAgICAgPHBhdGggZD0ibSA3MDguNTkgMjUwLjk2IGMgLTAuNDMzNiAwLjIyNjYgLTAuODA4NiAwLjUzOTEgLTEuMjgxMiAwLjc2NTYgbCAtMjM5LjQ2IDExMC4yMSBjIC0yMC42OTEgOS40OTYxIC0zNy41NzQgMzUuOTE4IC0zNy41NzQgNTguNjc2IHYgMTYyLjEyIGwgMC40NzY2IC0wLjAxOTUgbCAtMC43NDYxIDIyOS44IGMgNC40Njg4IC0xLjM0MzggOC43MTA5IC0yLjkzNzUgMTIuNjIxIC00LjczODMgbCAzMTcuMTcgLTE0Ni4wMyBjIDMwLjk5MiAtMTQuMjc3IDU2LjM5OCAtNTMuODc1IDU2LjM5OCAtODguMDM1IGwgLTAuMDYyNSAtMzcyLjM5IHoiIGNsYXNzPSJyaWdodCIvPiYjeGE7ICAgIDwvZz4mI3hhOzwvc3ZnPg==;shadow=1;textShadow=1;fontFamily=Atkinson Hyperlegible;fontSource=https%3A%2F%2Ffonts.googleapis.com%2Fcss%3Ffamily%3DAtkinson%2BHyperlegible;" vertex="1" parent="1">
          <mxGeometry x="460" y="145" width="30" height="30" as="geometry" />
        </mxCell>
        <mxCell id="xs-MprTF5tvxO5WwdqVo-15" style="edgeStyle=orthogonalEdgeStyle;rounded=0;orthogonalLoop=1;jettySize=auto;html=1;" edge="1" parent="1" source="xs-MprTF5tvxO5WwdqVo-9" target="xs-MprTF5tvxO5WwdqVo-10">
          <mxGeometry relative="1" as="geometry">
            <Array as="points">
              <mxPoint x="663" y="110" />
              <mxPoint x="663" y="85" />
            </Array>
          </mxGeometry>
        </mxCell>
        <mxCell id="xs-MprTF5tvxO5WwdqVo-19" style="edgeStyle=orthogonalEdgeStyle;rounded=0;orthogonalLoop=1;jettySize=auto;html=1;" edge="1" parent="1" source="xs-MprTF5tvxO5WwdqVo-9" target="xs-MprTF5tvxO5WwdqVo-11">
          <mxGeometry relative="1" as="geometry">
            <Array as="points">
              <mxPoint x="663" y="119" />
              <mxPoint x="663" y="155" />
            </Array>
          </mxGeometry>
        </mxCell>
        <mxCell id="xs-MprTF5tvxO5WwdqVo-31" style="edgeStyle=orthogonalEdgeStyle;rounded=0;orthogonalLoop=1;jettySize=auto;html=1;dashed=1;" edge="1" parent="1" source="xs-MprTF5tvxO5WwdqVo-9" target="xs-MprTF5tvxO5WwdqVo-6">
          <mxGeometry relative="1" as="geometry">
            <Array as="points">
              <mxPoint x="536" y="104" />
              <mxPoint x="536" y="76" />
            </Array>
          </mxGeometry>
        </mxCell>
        <mxCell id="xs-MprTF5tvxO5WwdqVo-34" style="edgeStyle=orthogonalEdgeStyle;rounded=0;orthogonalLoop=1;jettySize=auto;html=1;dashed=1;" edge="1" parent="1" source="xs-MprTF5tvxO5WwdqVo-9" target="xs-MprTF5tvxO5WwdqVo-8">
          <mxGeometry relative="1" as="geometry">
            <Array as="points">
              <mxPoint x="537" y="127" />
              <mxPoint x="537" y="163" />
            </Array>
          </mxGeometry>
        </mxCell>
        <mxCell id="xs-MprTF5tvxO5WwdqVo-9" value="" style="shape=image;verticalLabelPosition=bottom;labelBackgroundColor=none;verticalAlign=top;aspect=fixed;imageAspect=0;image=data:image/svg+xml,PHN2ZyB4bWxucz0iaHR0cDovL3d3dy53My5vcmcvMjAwMC9zdmciIHZpZXdCb3g9IjAgMCA4NTAgODUwIiB2ZXJzaW9uPSIxLjEiIGhlaWdodD0iODUwcHQiIHdpZHRoPSI4NTBwdCI+JiN4YTsgICAgPHN0eWxlIHR5cGU9InRleHQvY3NzIj4mI3hhOyAgICAgICAgLnRvcCB7JiN4YTsgICAgICAgIGZpbGw6IzZiNzI4MDsmI3hhOyAgICAgICAgfSYjeGE7ICAgICAgICAubGVmdCB7JiN4YTsgICAgICAgIGZpbGw6ICM0YjU1NjM7JiN4YTsgICAgICAgIH0mI3hhOyAgICAgICAgLnJpZ2h0IHsmI3hhOyAgICAgICAgZmlsbDojMWYyOTM3OyYjeGE7ICAgICAgICB9JiN4YTsmI3hhOyAgICAgICAgQG1lZGlhIChwcmVmZXJzLWNvbG9yLXNjaGVtZTogZGFyaykgeyYjeGE7ICAgICAgICAudG9wIHsmI3hhOyAgICAgICAgZmlsbDojZjlmYWZiOyYjeGE7ICAgICAgICB9JiN4YTsgICAgICAgIC5sZWZ0IHsmI3hhOyAgICAgICAgZmlsbDogI2U1ZTdlYjsmI3hhOyAgICAgICAgfSYjeGE7ICAgICAgICAucmlnaHQgeyYjeGE7ICAgICAgICBmaWxsOiAjOWNhM2FmOyYjeGE7ICAgICAgICB9JiN4YTsgICAgICAgIH0mI3hhOyAgICA8L3N0eWxlPiYjeGE7ICAgIDxnPiYjeGE7ICAgICAgICA8cGF0aCBkPSJNIDIzMCAyODAgbCAxNTcuMTggNzIuMzUyIGMgMjAuNjY4IDkuNTE1NiA1NC40OTYgOS41MTU2IDc1LjE0NSAwIGwgMTMyLjY0IC02MS4wNTUgbCAyMTcuNTMgLTEwMy43NCBjIC00LjU3NDIgLTMuNDMzNiAtOS4yNSAtNi41MTU2IC0xNC4xOTEgLTguNzczNCBsIC0zMTcuMDkgLTE0Ni4wMSBjIC0zMC45OTIgLTE0LjI3NyAtODEuNzQ2IC0xNC4yNzcgLTExMi43NiAwIGwgLTMxNy4xOSAxNDYuMDEgYyAtNS4wNzAzIDIuMzE2NCAtOS44NjcyIDUuNTIzNCAtMTQuNTQzIDkuMDYyNSB6IiBjbGFzcz0idG9wIi8+JiN4YTsgICAgICAgIDxwYXRoIGQ9Im0gNDIzLjM0IDQyMC45NiBjIDAgLTIyLjgwMSAtMTYuOTAyIC00OS4xNiAtMzcuNTc0IC01OC42OTUgbCAtMjM5LjQyIC0xMTAuMTUgYyAtMC4yMDcgLTAuMDgyIC0wLjM3MTEgLTAuMjUgLTAuNTc4MSAtMC4zNTE2IGwgLTEwOC4yNSAtNDkuODgzIHYgMzcyLjI1IGMgMCAzNC4xMzcgMjUuMzg3IDczLjczOCA1Ni4zOTggODguMDM1IGwgMzE3LjE5IDE0Ni4wMyBjIDIuODEyNSAxLjMwNDcgNS45NTcgMi4zMzk4IDkuMDYyNSAzLjM5NDUgbCAzLjE0NDUgLTE5My44IGwgMC4wMDM5IC0xOTYuODIgeiIgY2xhc3M9ImxlZnQiLz4mI3hhOyAgICAgICAgPHBhdGggZD0ibSA3MDguNTkgMjUwLjk2IGMgLTAuNDMzNiAwLjIyNjYgLTAuODA4NiAwLjUzOTEgLTEuMjgxMiAwLjc2NTYgbCAtMjM5LjQ2IDExMC4yMSBjIC0yMC42OTEgOS40OTYxIC0zNy41NzQgMzUuOTE4IC0zNy41NzQgNTguNjc2IHYgMTYyLjEyIGwgMC40NzY2IC0wLjAxOTUgbCAtMC43NDYxIDIyOS44IGMgNC40Njg4IC0xLjM0MzggOC43MTA5IC0yLjkzNzUgMTIuNjIxIC00LjczODMgbCAzMTcuMTcgLTE0Ni4wMyBjIDMwLjk5MiAtMTQuMjc3IDU2LjM5OCAtNTMuODc1IDU2LjM5OCAtODguMDM1IGwgLTAuMDYyNSAtMzcyLjM5IHoiIGNsYXNzPSJyaWdodCIvPiYjeGE7ICAgIDwvZz4mI3hhOzwvc3ZnPg==;shadow=1;textShadow=1;fontFamily=Atkinson Hyperlegible;fontSource=https%3A%2F%2Ffonts.googleapis.com%2Fcss%3Ffamily%3DAtkinson%2BHyperlegible;" vertex="1" parent="1">
          <mxGeometry x="565" y="85" width="60" height="60" as="geometry" />
        </mxCell>
        <mxCell id="xs-MprTF5tvxO5WwdqVo-16" style="edgeStyle=orthogonalEdgeStyle;rounded=0;orthogonalLoop=1;jettySize=auto;html=1;" edge="1" parent="1" source="xs-MprTF5tvxO5WwdqVo-10" target="xs-MprTF5tvxO5WwdqVo-2">
          <mxGeometry relative="1" as="geometry">
            <Array as="points">
              <mxPoint x="769" y="85" />
              <mxPoint x="769" y="85" />
            </Array>
          </mxGeometry>
        </mxCell>
        <mxCell id="xs-MprTF5tvxO5WwdqVo-28" style="edgeStyle=orthogonalEdgeStyle;rounded=0;orthogonalLoop=1;jettySize=auto;html=1;dashed=1;" edge="1" parent="1" source="xs-MprTF5tvxO5WwdqVo-10" target="xs-MprTF5tvxO5WwdqVo-9">
          <mxGeometry relative="1" as="geometry">
            <Array as="points">
              <mxPoint x="656" y="76" />
              <mxPoint x="656" y="103" />
            </Array>
          </mxGeometry>
        </mxCell>
        <mxCell id="xs-MprTF5tvxO5WwdqVo-10" value="" style="shape=image;verticalLabelPosition=bottom;labelBackgroundColor=none;verticalAlign=top;aspect=fixed;imageAspect=0;image=data:image/svg+xml,PHN2ZyB4bWxucz0iaHR0cDovL3d3dy53My5vcmcvMjAwMC9zdmciIHZpZXdCb3g9IjAgMCA4NTAgODUwIiB2ZXJzaW9uPSIxLjEiIGhlaWdodD0iODUwcHQiIHdpZHRoPSI4NTBwdCI+JiN4YTsgICAgPHN0eWxlIHR5cGU9InRleHQvY3NzIj4mI3hhOyAgICAgICAgLnRvcCB7JiN4YTsgICAgICAgIGZpbGw6IzZiNzI4MDsmI3hhOyAgICAgICAgfSYjeGE7ICAgICAgICAubGVmdCB7JiN4YTsgICAgICAgIGZpbGw6ICM0YjU1NjM7JiN4YTsgICAgICAgIH0mI3hhOyAgICAgICAgLnJpZ2h0IHsmI3hhOyAgICAgICAgZmlsbDojMWYyOTM3OyYjeGE7ICAgICAgICB9JiN4YTsmI3hhOyAgICAgICAgQG1lZGlhIChwcmVmZXJzLWNvbG9yLXNjaGVtZTogZGFyaykgeyYjeGE7ICAgICAgICAudG9wIHsmI3hhOyAgICAgICAgZmlsbDojZjlmYWZiOyYjeGE7ICAgICAgICB9JiN4YTsgICAgICAgIC5sZWZ0IHsmI3hhOyAgICAgICAgZmlsbDogI2U1ZTdlYjsmI3hhOyAgICAgICAgfSYjeGE7ICAgICAgICAucmlnaHQgeyYjeGE7ICAgICAgICBmaWxsOiAjOWNhM2FmOyYjeGE7ICAgICAgICB9JiN4YTsgICAgICAgIH0mI3hhOyAgICA8L3N0eWxlPiYjeGE7ICAgIDxnPiYjeGE7ICAgICAgICA8cGF0aCBkPSJNIDIzMCAyODAgbCAxNTcuMTggNzIuMzUyIGMgMjAuNjY4IDkuNTE1NiA1NC40OTYgOS41MTU2IDc1LjE0NSAwIGwgMTMyLjY0IC02MS4wNTUgbCAyMTcuNTMgLTEwMy43NCBjIC00LjU3NDIgLTMuNDMzNiAtOS4yNSAtNi41MTU2IC0xNC4xOTEgLTguNzczNCBsIC0zMTcuMDkgLTE0Ni4wMSBjIC0zMC45OTIgLTE0LjI3NyAtODEuNzQ2IC0xNC4yNzcgLTExMi43NiAwIGwgLTMxNy4xOSAxNDYuMDEgYyAtNS4wNzAzIDIuMzE2NCAtOS44NjcyIDUuNTIzNCAtMTQuNTQzIDkuMDYyNSB6IiBjbGFzcz0idG9wIi8+JiN4YTsgICAgICAgIDxwYXRoIGQ9Im0gNDIzLjM0IDQyMC45NiBjIDAgLTIyLjgwMSAtMTYuOTAyIC00OS4xNiAtMzcuNTc0IC01OC42OTUgbCAtMjM5LjQyIC0xMTAuMTUgYyAtMC4yMDcgLTAuMDgyIC0wLjM3MTEgLTAuMjUgLTAuNTc4MSAtMC4zNTE2IGwgLTEwOC4yNSAtNDkuODgzIHYgMzcyLjI1IGMgMCAzNC4xMzcgMjUuMzg3IDczLjczOCA1Ni4zOTggODguMDM1IGwgMzE3LjE5IDE0Ni4wMyBjIDIuODEyNSAxLjMwNDcgNS45NTcgMi4zMzk4IDkuMDYyNSAzLjM5NDUgbCAzLjE0NDUgLTE5My44IGwgMC4wMDM5IC0xOTYuODIgeiIgY2xhc3M9ImxlZnQiLz4mI3hhOyAgICAgICAgPHBhdGggZD0ibSA3MDguNTkgMjUwLjk2IGMgLTAuNDMzNiAwLjIyNjYgLTAuODA4NiAwLjUzOTEgLTEuMjgxMiAwLjc2NTYgbCAtMjM5LjQ2IDExMC4yMSBjIC0yMC42OTEgOS40OTYxIC0zNy41NzQgMzUuOTE4IC0zNy41NzQgNTguNjc2IHYgMTYyLjEyIGwgMC40NzY2IC0wLjAxOTUgbCAtMC43NDYxIDIyOS44IGMgNC40Njg4IC0xLjM0MzggOC43MTA5IC0yLjkzNzUgMTIuNjIxIC00LjczODMgbCAzMTcuMTcgLTE0Ni4wMyBjIDMwLjk5MiAtMTQuMjc3IDU2LjM5OCAtNTMuODc1IDU2LjM5OCAtODguMDM1IGwgLTAuMDYyNSAtMzcyLjM5IHoiIGNsYXNzPSJyaWdodCIvPiYjeGE7ICAgIDwvZz4mI3hhOzwvc3ZnPg==;shadow=1;textShadow=1;fontFamily=Atkinson Hyperlegible;fontSource=https%3A%2F%2Ffonts.googleapis.com%2Fcss%3Ffamily%3DAtkinson%2BHyperlegible;" vertex="1" parent="1">
          <mxGeometry x="700" y="65" width="30" height="30" as="geometry" />
        </mxCell>
        <mxCell id="xs-MprTF5tvxO5WwdqVo-20" style="edgeStyle=orthogonalEdgeStyle;rounded=0;orthogonalLoop=1;jettySize=auto;html=1;" edge="1" parent="1">
          <mxGeometry relative="1" as="geometry">
            <mxPoint x="730" y="155.00395256916994" as="sourcePoint" />
            <mxPoint x="810" y="155.00395256916994" as="targetPoint" />
            <Array as="points">
              <mxPoint x="770" y="155" />
              <mxPoint x="770" y="155" />
            </Array>
          </mxGeometry>
        </mxCell>
        <mxCell id="xs-MprTF5tvxO5WwdqVo-26" style="edgeStyle=orthogonalEdgeStyle;rounded=0;orthogonalLoop=1;jettySize=auto;html=1;dashed=1;" edge="1" parent="1" source="xs-MprTF5tvxO5WwdqVo-11" target="xs-MprTF5tvxO5WwdqVo-9">
          <mxGeometry relative="1" as="geometry">
            <Array as="points">
              <mxPoint x="656" y="164" />
              <mxPoint x="656" y="126" />
            </Array>
          </mxGeometry>
        </mxCell>
        <mxCell id="xs-MprTF5tvxO5WwdqVo-11" value="" style="shape=image;verticalLabelPosition=bottom;labelBackgroundColor=none;verticalAlign=top;aspect=fixed;imageAspect=0;image=data:image/svg+xml,PHN2ZyB4bWxucz0iaHR0cDovL3d3dy53My5vcmcvMjAwMC9zdmciIHZpZXdCb3g9IjAgMCA4NTAgODUwIiB2ZXJzaW9uPSIxLjEiIGhlaWdodD0iODUwcHQiIHdpZHRoPSI4NTBwdCI+JiN4YTsgICAgPHN0eWxlIHR5cGU9InRleHQvY3NzIj4mI3hhOyAgICAgICAgLnRvcCB7JiN4YTsgICAgICAgIGZpbGw6IzZiNzI4MDsmI3hhOyAgICAgICAgfSYjeGE7ICAgICAgICAubGVmdCB7JiN4YTsgICAgICAgIGZpbGw6ICM0YjU1NjM7JiN4YTsgICAgICAgIH0mI3hhOyAgICAgICAgLnJpZ2h0IHsmI3hhOyAgICAgICAgZmlsbDojMWYyOTM3OyYjeGE7ICAgICAgICB9JiN4YTsmI3hhOyAgICAgICAgQG1lZGlhIChwcmVmZXJzLWNvbG9yLXNjaGVtZTogZGFyaykgeyYjeGE7ICAgICAgICAudG9wIHsmI3hhOyAgICAgICAgZmlsbDojZjlmYWZiOyYjeGE7ICAgICAgICB9JiN4YTsgICAgICAgIC5sZWZ0IHsmI3hhOyAgICAgICAgZmlsbDogI2U1ZTdlYjsmI3hhOyAgICAgICAgfSYjeGE7ICAgICAgICAucmlnaHQgeyYjeGE7ICAgICAgICBmaWxsOiAjOWNhM2FmOyYjeGE7ICAgICAgICB9JiN4YTsgICAgICAgIH0mI3hhOyAgICA8L3N0eWxlPiYjeGE7ICAgIDxnPiYjeGE7ICAgICAgICA8cGF0aCBkPSJNIDIzMCAyODAgbCAxNTcuMTggNzIuMzUyIGMgMjAuNjY4IDkuNTE1NiA1NC40OTYgOS41MTU2IDc1LjE0NSAwIGwgMTMyLjY0IC02MS4wNTUgbCAyMTcuNTMgLTEwMy43NCBjIC00LjU3NDIgLTMuNDMzNiAtOS4yNSAtNi41MTU2IC0xNC4xOTEgLTguNzczNCBsIC0zMTcuMDkgLTE0Ni4wMSBjIC0zMC45OTIgLTE0LjI3NyAtODEuNzQ2IC0xNC4yNzcgLTExMi43NiAwIGwgLTMxNy4xOSAxNDYuMDEgYyAtNS4wNzAzIDIuMzE2NCAtOS44NjcyIDUuNTIzNCAtMTQuNTQzIDkuMDYyNSB6IiBjbGFzcz0idG9wIi8+JiN4YTsgICAgICAgIDxwYXRoIGQ9Im0gNDIzLjM0IDQyMC45NiBjIDAgLTIyLjgwMSAtMTYuOTAyIC00OS4xNiAtMzcuNTc0IC01OC42OTUgbCAtMjM5LjQyIC0xMTAuMTUgYyAtMC4yMDcgLTAuMDgyIC0wLjM3MTEgLTAuMjUgLTAuNTc4MSAtMC4zNTE2IGwgLTEwOC4yNSAtNDkuODgzIHYgMzcyLjI1IGMgMCAzNC4xMzcgMjUuMzg3IDczLjczOCA1Ni4zOTggODguMDM1IGwgMzE3LjE5IDE0Ni4wMyBjIDIuODEyNSAxLjMwNDcgNS45NTcgMi4zMzk4IDkuMDYyNSAzLjM5NDUgbCAzLjE0NDUgLTE5My44IGwgMC4wMDM5IC0xOTYuODIgeiIgY2xhc3M9ImxlZnQiLz4mI3hhOyAgICAgICAgPHBhdGggZD0ibSA3MDguNTkgMjUwLjk2IGMgLTAuNDMzNiAwLjIyNjYgLTAuODA4NiAwLjUzOTEgLTEuMjgxMiAwLjc2NTYgbCAtMjM5LjQ2IDExMC4yMSBjIC0yMC42OTEgOS40OTYxIC0zNy41NzQgMzUuOTE4IC0zNy41NzQgNTguNjc2IHYgMTYyLjEyIGwgMC40NzY2IC0wLjAxOTUgbCAtMC43NDYxIDIyOS44IGMgNC40Njg4IC0xLjM0MzggOC43MTA5IC0yLjkzNzUgMTIuNjIxIC00LjczODMgbCAzMTcuMTcgLTE0Ni4wMyBjIDMwLjk5MiAtMTQuMjc3IDU2LjM5OCAtNTMuODc1IDU2LjM5OCAtODguMDM1IGwgLTAuMDYyNSAtMzcyLjM5IHoiIGNsYXNzPSJyaWdodCIvPiYjeGE7ICAgIDwvZz4mI3hhOzwvc3ZnPg==;shadow=1;textShadow=1;fontFamily=Atkinson Hyperlegible;fontSource=https%3A%2F%2Ffonts.googleapis.com%2Fcss%3Ffamily%3DAtkinson%2BHyperlegible;" vertex="1" parent="1">
          <mxGeometry x="700" y="145" width="30" height="30" as="geometry" />
        </mxCell>
        <mxCell id="xs-MprTF5tvxO5WwdqVo-23" style="edgeStyle=orthogonalEdgeStyle;rounded=0;orthogonalLoop=1;jettySize=auto;html=1;labelBackgroundColor=none;dashed=1;" edge="1" parent="1">
          <mxGeometry relative="1" as="geometry">
            <mxPoint x="810" y="164" as="sourcePoint" />
            <mxPoint x="730" y="164" as="targetPoint" />
            <Array as="points">
              <mxPoint x="780" y="164" />
              <mxPoint x="780" y="164" />
            </Array>
          </mxGeometry>
        </mxCell>
        <mxCell id="CABz82fo70wp0chgf_nB-3" style="edgeStyle=orthogonalEdgeStyle;rounded=0;orthogonalLoop=1;jettySize=auto;html=1;endArrow=classic;endFill=1;" edge="1" parent="1" source="fAuRe4YFzYjmmBLXa14k-4" target="fAuRe4YFzYjmmBLXa14k-16">
          <mxGeometry relative="1" as="geometry">
            <Array as="points">
              <mxPoint x="424" y="239" />
              <mxPoint x="424" y="239" />
            </Array>
          </mxGeometry>
        </mxCell>
        <mxCell id="fAuRe4YFzYjmmBLXa14k-4" value="" style="shape=image;verticalLabelPosition=bottom;labelBackgroundColor=none;verticalAlign=top;aspect=fixed;imageAspect=0;image=data:image/svg+xml,PHN2ZyB4bWxucz0iaHR0cDovL3d3dy53My5vcmcvMjAwMC9zdmciIHZpZXdCb3g9IjAgMCA4NTAgODUwIiB2ZXJzaW9uPSIxLjEiIGhlaWdodD0iODUwcHQiIHdpZHRoPSI4NTBwdCI+JiN4YTsgICAgPHN0eWxlIHR5cGU9InRleHQvY3NzIj4mI3hhOyAgICAgICAgLnRvcCB7JiN4YTsgICAgICAgIGZpbGw6IzZiNzI4MDsmI3hhOyAgICAgICAgfSYjeGE7ICAgICAgICAubGVmdCB7JiN4YTsgICAgICAgIGZpbGw6ICM0YjU1NjM7JiN4YTsgICAgICAgIH0mI3hhOyAgICAgICAgLnJpZ2h0IHsmI3hhOyAgICAgICAgZmlsbDojMWYyOTM3OyYjeGE7ICAgICAgICB9JiN4YTsmI3hhOyAgICAgICAgQG1lZGlhIChwcmVmZXJzLWNvbG9yLXNjaGVtZTogZGFyaykgeyYjeGE7ICAgICAgICAudG9wIHsmI3hhOyAgICAgICAgZmlsbDojZjlmYWZiOyYjeGE7ICAgICAgICB9JiN4YTsgICAgICAgIC5sZWZ0IHsmI3hhOyAgICAgICAgZmlsbDogI2U1ZTdlYjsmI3hhOyAgICAgICAgfSYjeGE7ICAgICAgICAucmlnaHQgeyYjeGE7ICAgICAgICBmaWxsOiAjOWNhM2FmOyYjeGE7ICAgICAgICB9JiN4YTsgICAgICAgIH0mI3hhOyAgICA8L3N0eWxlPiYjeGE7ICAgIDxnPiYjeGE7ICAgICAgICA8cGF0aCBkPSJNIDIzMCAyODAgbCAxNTcuMTggNzIuMzUyIGMgMjAuNjY4IDkuNTE1NiA1NC40OTYgOS41MTU2IDc1LjE0NSAwIGwgMTMyLjY0IC02MS4wNTUgbCAyMTcuNTMgLTEwMy43NCBjIC00LjU3NDIgLTMuNDMzNiAtOS4yNSAtNi41MTU2IC0xNC4xOTEgLTguNzczNCBsIC0zMTcuMDkgLTE0Ni4wMSBjIC0zMC45OTIgLTE0LjI3NyAtODEuNzQ2IC0xNC4yNzcgLTExMi43NiAwIGwgLTMxNy4xOSAxNDYuMDEgYyAtNS4wNzAzIDIuMzE2NCAtOS44NjcyIDUuNTIzNCAtMTQuNTQzIDkuMDYyNSB6IiBjbGFzcz0idG9wIi8+JiN4YTsgICAgICAgIDxwYXRoIGQ9Im0gNDIzLjM0IDQyMC45NiBjIDAgLTIyLjgwMSAtMTYuOTAyIC00OS4xNiAtMzcuNTc0IC01OC42OTUgbCAtMjM5LjQyIC0xMTAuMTUgYyAtMC4yMDcgLTAuMDgyIC0wLjM3MTEgLTAuMjUgLTAuNTc4MSAtMC4zNTE2IGwgLTEwOC4yNSAtNDkuODgzIHYgMzcyLjI1IGMgMCAzNC4xMzcgMjUuMzg3IDczLjczOCA1Ni4zOTggODguMDM1IGwgMzE3LjE5IDE0Ni4wMyBjIDIuODEyNSAxLjMwNDcgNS45NTcgMi4zMzk4IDkuMDYyNSAzLjM5NDUgbCAzLjE0NDUgLTE5My44IGwgMC4wMDM5IC0xOTYuODIgeiIgY2xhc3M9ImxlZnQiLz4mI3hhOyAgICAgICAgPHBhdGggZD0ibSA3MDguNTkgMjUwLjk2IGMgLTAuNDMzNiAwLjIyNjYgLTAuODA4NiAwLjUzOTEgLTEuMjgxMiAwLjc2NTYgbCAtMjM5LjQ2IDExMC4yMSBjIC0yMC42OTEgOS40OTYxIC0zNy41NzQgMzUuOTE4IC0zNy41NzQgNTguNjc2IHYgMTYyLjEyIGwgMC40NzY2IC0wLjAxOTUgbCAtMC43NDYxIDIyOS44IGMgNC40Njg4IC0xLjM0MzggOC43MTA5IC0yLjkzNzUgMTIuNjIxIC00LjczODMgbCAzMTcuMTcgLTE0Ni4wMyBjIDMwLjk5MiAtMTQuMjc3IDU2LjM5OCAtNTMuODc1IDU2LjM5OCAtODguMDM1IGwgLTAuMDYyNSAtMzcyLjM5IHoiIGNsYXNzPSJyaWdodCIvPiYjeGE7ICAgIDwvZz4mI3hhOzwvc3ZnPg==;shadow=1;textShadow=1;fontFamily=Atkinson Hyperlegible;fontSource=https%3A%2F%2Ffonts.googleapis.com%2Fcss%3Ffamily%3DAtkinson%2BHyperlegible;" vertex="1" parent="1">
          <mxGeometry x="330" y="214" width="60" height="60" as="geometry" />
        </mxCell>
        <mxCell id="fAuRe4YFzYjmmBLXa14k-5" value="Producer" style="text;html=1;align=center;verticalAlign=middle;whiteSpace=wrap;rounded=0;fontFamily=Atkinson Hyperlegible;fontSource=https%3A%2F%2Ffonts.googleapis.com%2Fcss%3Ffamily%3DAtkinson%2BHyperlegible;" vertex="1" parent="1">
          <mxGeometry x="330" y="264" width="60" height="30" as="geometry" />
        </mxCell>
        <mxCell id="CABz82fo70wp0chgf_nB-2" style="edgeStyle=orthogonalEdgeStyle;rounded=0;orthogonalLoop=1;jettySize=auto;html=1;endArrow=classic;endFill=1;" edge="1" parent="1" source="fAuRe4YFzYjmmBLXa14k-7" target="fAuRe4YFzYjmmBLXa14k-19">
          <mxGeometry relative="1" as="geometry">
            <Array as="points">
              <mxPoint x="430" y="318" />
              <mxPoint x="430" y="318" />
            </Array>
          </mxGeometry>
        </mxCell>
        <mxCell id="fAuRe4YFzYjmmBLXa14k-7" value="" style="shape=image;verticalLabelPosition=bottom;labelBackgroundColor=none;verticalAlign=top;aspect=fixed;imageAspect=0;image=data:image/svg+xml,PHN2ZyB4bWxucz0iaHR0cDovL3d3dy53My5vcmcvMjAwMC9zdmciIHZpZXdCb3g9IjAgMCA4NTAgODUwIiB2ZXJzaW9uPSIxLjEiIGhlaWdodD0iODUwcHQiIHdpZHRoPSI4NTBwdCI+JiN4YTsgICAgPHN0eWxlIHR5cGU9InRleHQvY3NzIj4mI3hhOyAgICAgICAgLnRvcCB7JiN4YTsgICAgICAgIGZpbGw6IzZiNzI4MDsmI3hhOyAgICAgICAgfSYjeGE7ICAgICAgICAubGVmdCB7JiN4YTsgICAgICAgIGZpbGw6ICM0YjU1NjM7JiN4YTsgICAgICAgIH0mI3hhOyAgICAgICAgLnJpZ2h0IHsmI3hhOyAgICAgICAgZmlsbDojMWYyOTM3OyYjeGE7ICAgICAgICB9JiN4YTsmI3hhOyAgICAgICAgQG1lZGlhIChwcmVmZXJzLWNvbG9yLXNjaGVtZTogZGFyaykgeyYjeGE7ICAgICAgICAudG9wIHsmI3hhOyAgICAgICAgZmlsbDojZjlmYWZiOyYjeGE7ICAgICAgICB9JiN4YTsgICAgICAgIC5sZWZ0IHsmI3hhOyAgICAgICAgZmlsbDogI2U1ZTdlYjsmI3hhOyAgICAgICAgfSYjeGE7ICAgICAgICAucmlnaHQgeyYjeGE7ICAgICAgICBmaWxsOiAjOWNhM2FmOyYjeGE7ICAgICAgICB9JiN4YTsgICAgICAgIH0mI3hhOyAgICA8L3N0eWxlPiYjeGE7ICAgIDxnPiYjeGE7ICAgICAgICA8cGF0aCBkPSJNIDIzMCAyODAgbCAxNTcuMTggNzIuMzUyIGMgMjAuNjY4IDkuNTE1NiA1NC40OTYgOS41MTU2IDc1LjE0NSAwIGwgMTMyLjY0IC02MS4wNTUgbCAyMTcuNTMgLTEwMy43NCBjIC00LjU3NDIgLTMuNDMzNiAtOS4yNSAtNi41MTU2IC0xNC4xOTEgLTguNzczNCBsIC0zMTcuMDkgLTE0Ni4wMSBjIC0zMC45OTIgLTE0LjI3NyAtODEuNzQ2IC0xNC4yNzcgLTExMi43NiAwIGwgLTMxNy4xOSAxNDYuMDEgYyAtNS4wNzAzIDIuMzE2NCAtOS44NjcyIDUuNTIzNCAtMTQuNTQzIDkuMDYyNSB6IiBjbGFzcz0idG9wIi8+JiN4YTsgICAgICAgIDxwYXRoIGQ9Im0gNDIzLjM0IDQyMC45NiBjIDAgLTIyLjgwMSAtMTYuOTAyIC00OS4xNiAtMzcuNTc0IC01OC42OTUgbCAtMjM5LjQyIC0xMTAuMTUgYyAtMC4yMDcgLTAuMDgyIC0wLjM3MTEgLTAuMjUgLTAuNTc4MSAtMC4zNTE2IGwgLTEwOC4yNSAtNDkuODgzIHYgMzcyLjI1IGMgMCAzNC4xMzcgMjUuMzg3IDczLjczOCA1Ni4zOTggODguMDM1IGwgMzE3LjE5IDE0Ni4wMyBjIDIuODEyNSAxLjMwNDcgNS45NTcgMi4zMzk4IDkuMDYyNSAzLjM5NDUgbCAzLjE0NDUgLTE5My44IGwgMC4wMDM5IC0xOTYuODIgeiIgY2xhc3M9ImxlZnQiLz4mI3hhOyAgICAgICAgPHBhdGggZD0ibSA3MDguNTkgMjUwLjk2IGMgLTAuNDMzNiAwLjIyNjYgLTAuODA4NiAwLjUzOTEgLTEuMjgxMiAwLjc2NTYgbCAtMjM5LjQ2IDExMC4yMSBjIC0yMC42OTEgOS40OTYxIC0zNy41NzQgMzUuOTE4IC0zNy41NzQgNTguNjc2IHYgMTYyLjEyIGwgMC40NzY2IC0wLjAxOTUgbCAtMC43NDYxIDIyOS44IGMgNC40Njg4IC0xLjM0MzggOC43MTA5IC0yLjkzNzUgMTIuNjIxIC00LjczODMgbCAzMTcuMTcgLTE0Ni4wMyBjIDMwLjk5MiAtMTQuMjc3IDU2LjM5OCAtNTMuODc1IDU2LjM5OCAtODguMDM1IGwgLTAuMDYyNSAtMzcyLjM5IHoiIGNsYXNzPSJyaWdodCIvPiYjeGE7ICAgIDwvZz4mI3hhOzwvc3ZnPg==;shadow=1;textShadow=1;fontFamily=Atkinson Hyperlegible;fontSource=https%3A%2F%2Ffonts.googleapis.com%2Fcss%3Ffamily%3DAtkinson%2BHyperlegible;" vertex="1" parent="1">
          <mxGeometry x="330" y="294" width="60" height="60" as="geometry" />
        </mxCell>
        <mxCell id="fAuRe4YFzYjmmBLXa14k-8" value="Producer" style="text;html=1;align=center;verticalAlign=middle;whiteSpace=wrap;rounded=0;fontFamily=Atkinson Hyperlegible;fontSource=https%3A%2F%2Ffonts.googleapis.com%2Fcss%3Ffamily%3DAtkinson%2BHyperlegible;" vertex="1" parent="1">
          <mxGeometry x="330" y="344" width="60" height="30" as="geometry" />
        </mxCell>
        <mxCell id="CABz82fo70wp0chgf_nB-12" style="edgeStyle=orthogonalEdgeStyle;rounded=0;orthogonalLoop=1;jettySize=auto;html=1;dashed=1;" edge="1" parent="1" source="fAuRe4YFzYjmmBLXa14k-10" target="fAuRe4YFzYjmmBLXa14k-27">
          <mxGeometry relative="1" as="geometry">
            <Array as="points">
              <mxPoint x="769" y="250" />
              <mxPoint x="769" y="250" />
            </Array>
          </mxGeometry>
        </mxCell>
        <mxCell id="fAuRe4YFzYjmmBLXa14k-10" value="" style="shape=image;verticalLabelPosition=bottom;labelBackgroundColor=none;verticalAlign=top;aspect=fixed;imageAspect=0;image=data:image/svg+xml,PHN2ZyB4bWxucz0iaHR0cDovL3d3dy53My5vcmcvMjAwMC9zdmciIHZpZXdCb3g9IjAgMCA4NTAgODUwIiB2ZXJzaW9uPSIxLjEiIGhlaWdodD0iODUwcHQiIHdpZHRoPSI4NTBwdCI+JiN4YTsgICAgPHN0eWxlIHR5cGU9InRleHQvY3NzIj4mI3hhOyAgICAgICAgLnRvcCB7JiN4YTsgICAgICAgIGZpbGw6IzZiNzI4MDsmI3hhOyAgICAgICAgfSYjeGE7ICAgICAgICAubGVmdCB7JiN4YTsgICAgICAgIGZpbGw6ICM0YjU1NjM7JiN4YTsgICAgICAgIH0mI3hhOyAgICAgICAgLnJpZ2h0IHsmI3hhOyAgICAgICAgZmlsbDojMWYyOTM3OyYjeGE7ICAgICAgICB9JiN4YTsmI3hhOyAgICAgICAgQG1lZGlhIChwcmVmZXJzLWNvbG9yLXNjaGVtZTogZGFyaykgeyYjeGE7ICAgICAgICAudG9wIHsmI3hhOyAgICAgICAgZmlsbDojZjlmYWZiOyYjeGE7ICAgICAgICB9JiN4YTsgICAgICAgIC5sZWZ0IHsmI3hhOyAgICAgICAgZmlsbDogI2U1ZTdlYjsmI3hhOyAgICAgICAgfSYjeGE7ICAgICAgICAucmlnaHQgeyYjeGE7ICAgICAgICBmaWxsOiAjOWNhM2FmOyYjeGE7ICAgICAgICB9JiN4YTsgICAgICAgIH0mI3hhOyAgICA8L3N0eWxlPiYjeGE7ICAgIDxnPiYjeGE7ICAgICAgICA8cGF0aCBkPSJNIDIzMCAyODAgbCAxNTcuMTggNzIuMzUyIGMgMjAuNjY4IDkuNTE1NiA1NC40OTYgOS41MTU2IDc1LjE0NSAwIGwgMTMyLjY0IC02MS4wNTUgbCAyMTcuNTMgLTEwMy43NCBjIC00LjU3NDIgLTMuNDMzNiAtOS4yNSAtNi41MTU2IC0xNC4xOTEgLTguNzczNCBsIC0zMTcuMDkgLTE0Ni4wMSBjIC0zMC45OTIgLTE0LjI3NyAtODEuNzQ2IC0xNC4yNzcgLTExMi43NiAwIGwgLTMxNy4xOSAxNDYuMDEgYyAtNS4wNzAzIDIuMzE2NCAtOS44NjcyIDUuNTIzNCAtMTQuNTQzIDkuMDYyNSB6IiBjbGFzcz0idG9wIi8+JiN4YTsgICAgICAgIDxwYXRoIGQ9Im0gNDIzLjM0IDQyMC45NiBjIDAgLTIyLjgwMSAtMTYuOTAyIC00OS4xNiAtMzcuNTc0IC01OC42OTUgbCAtMjM5LjQyIC0xMTAuMTUgYyAtMC4yMDcgLTAuMDgyIC0wLjM3MTEgLTAuMjUgLTAuNTc4MSAtMC4zNTE2IGwgLTEwOC4yNSAtNDkuODgzIHYgMzcyLjI1IGMgMCAzNC4xMzcgMjUuMzg3IDczLjczOCA1Ni4zOTggODguMDM1IGwgMzE3LjE5IDE0Ni4wMyBjIDIuODEyNSAxLjMwNDcgNS45NTcgMi4zMzk4IDkuMDYyNSAzLjM5NDUgbCAzLjE0NDUgLTE5My44IGwgMC4wMDM5IC0xOTYuODIgeiIgY2xhc3M9ImxlZnQiLz4mI3hhOyAgICAgICAgPHBhdGggZD0ibSA3MDguNTkgMjUwLjk2IGMgLTAuNDMzNiAwLjIyNjYgLTAuODA4NiAwLjUzOTEgLTEuMjgxMiAwLjc2NTYgbCAtMjM5LjQ2IDExMC4yMSBjIC0yMC42OTEgOS40OTYxIC0zNy41NzQgMzUuOTE4IC0zNy41NzQgNTguNjc2IHYgMTYyLjEyIGwgMC40NzY2IC0wLjAxOTUgbCAtMC43NDYxIDIyOS44IGMgNC40Njg4IC0xLjM0MzggOC43MTA5IC0yLjkzNzUgMTIuNjIxIC00LjczODMgbCAzMTcuMTcgLTE0Ni4wMyBjIDMwLjk5MiAtMTQuMjc3IDU2LjM5OCAtNTMuODc1IDU2LjM5OCAtODguMDM1IGwgLTAuMDYyNSAtMzcyLjM5IHoiIGNsYXNzPSJyaWdodCIvPiYjeGE7ICAgIDwvZz4mI3hhOzwvc3ZnPg==;shadow=1;textShadow=1;fontFamily=Atkinson Hyperlegible;fontSource=https%3A%2F%2Ffonts.googleapis.com%2Fcss%3Ffamily%3DAtkinson%2BHyperlegible;" vertex="1" parent="1">
          <mxGeometry x="810" y="214" width="60" height="60" as="geometry" />
        </mxCell>
        <mxCell id="fAuRe4YFzYjmmBLXa14k-11" value="Consumer" style="text;html=1;align=center;verticalAlign=middle;whiteSpace=wrap;rounded=0;fontFamily=Atkinson Hyperlegible;fontSource=https%3A%2F%2Ffonts.googleapis.com%2Fcss%3Ffamily%3DAtkinson%2BHyperlegible;" vertex="1" parent="1">
          <mxGeometry x="810" y="264" width="60" height="30" as="geometry" />
        </mxCell>
        <mxCell id="CABz82fo70wp0chgf_nB-13" style="edgeStyle=orthogonalEdgeStyle;rounded=0;orthogonalLoop=1;jettySize=auto;html=1;dashed=1;" edge="1" parent="1" source="fAuRe4YFzYjmmBLXa14k-12" target="fAuRe4YFzYjmmBLXa14k-30">
          <mxGeometry relative="1" as="geometry">
            <Array as="points">
              <mxPoint x="766" y="330" />
              <mxPoint x="766" y="330" />
            </Array>
          </mxGeometry>
        </mxCell>
        <mxCell id="fAuRe4YFzYjmmBLXa14k-12" value="" style="shape=image;verticalLabelPosition=bottom;labelBackgroundColor=none;verticalAlign=top;aspect=fixed;imageAspect=0;image=data:image/svg+xml,PHN2ZyB4bWxucz0iaHR0cDovL3d3dy53My5vcmcvMjAwMC9zdmciIHZpZXdCb3g9IjAgMCA4NTAgODUwIiB2ZXJzaW9uPSIxLjEiIGhlaWdodD0iODUwcHQiIHdpZHRoPSI4NTBwdCI+JiN4YTsgICAgPHN0eWxlIHR5cGU9InRleHQvY3NzIj4mI3hhOyAgICAgICAgLnRvcCB7JiN4YTsgICAgICAgIGZpbGw6IzZiNzI4MDsmI3hhOyAgICAgICAgfSYjeGE7ICAgICAgICAubGVmdCB7JiN4YTsgICAgICAgIGZpbGw6ICM0YjU1NjM7JiN4YTsgICAgICAgIH0mI3hhOyAgICAgICAgLnJpZ2h0IHsmI3hhOyAgICAgICAgZmlsbDojMWYyOTM3OyYjeGE7ICAgICAgICB9JiN4YTsmI3hhOyAgICAgICAgQG1lZGlhIChwcmVmZXJzLWNvbG9yLXNjaGVtZTogZGFyaykgeyYjeGE7ICAgICAgICAudG9wIHsmI3hhOyAgICAgICAgZmlsbDojZjlmYWZiOyYjeGE7ICAgICAgICB9JiN4YTsgICAgICAgIC5sZWZ0IHsmI3hhOyAgICAgICAgZmlsbDogI2U1ZTdlYjsmI3hhOyAgICAgICAgfSYjeGE7ICAgICAgICAucmlnaHQgeyYjeGE7ICAgICAgICBmaWxsOiAjOWNhM2FmOyYjeGE7ICAgICAgICB9JiN4YTsgICAgICAgIH0mI3hhOyAgICA8L3N0eWxlPiYjeGE7ICAgIDxnPiYjeGE7ICAgICAgICA8cGF0aCBkPSJNIDIzMCAyODAgbCAxNTcuMTggNzIuMzUyIGMgMjAuNjY4IDkuNTE1NiA1NC40OTYgOS41MTU2IDc1LjE0NSAwIGwgMTMyLjY0IC02MS4wNTUgbCAyMTcuNTMgLTEwMy43NCBjIC00LjU3NDIgLTMuNDMzNiAtOS4yNSAtNi41MTU2IC0xNC4xOTEgLTguNzczNCBsIC0zMTcuMDkgLTE0Ni4wMSBjIC0zMC45OTIgLTE0LjI3NyAtODEuNzQ2IC0xNC4yNzcgLTExMi43NiAwIGwgLTMxNy4xOSAxNDYuMDEgYyAtNS4wNzAzIDIuMzE2NCAtOS44NjcyIDUuNTIzNCAtMTQuNTQzIDkuMDYyNSB6IiBjbGFzcz0idG9wIi8+JiN4YTsgICAgICAgIDxwYXRoIGQ9Im0gNDIzLjM0IDQyMC45NiBjIDAgLTIyLjgwMSAtMTYuOTAyIC00OS4xNiAtMzcuNTc0IC01OC42OTUgbCAtMjM5LjQyIC0xMTAuMTUgYyAtMC4yMDcgLTAuMDgyIC0wLjM3MTEgLTAuMjUgLTAuNTc4MSAtMC4zNTE2IGwgLTEwOC4yNSAtNDkuODgzIHYgMzcyLjI1IGMgMCAzNC4xMzcgMjUuMzg3IDczLjczOCA1Ni4zOTggODguMDM1IGwgMzE3LjE5IDE0Ni4wMyBjIDIuODEyNSAxLjMwNDcgNS45NTcgMi4zMzk4IDkuMDYyNSAzLjM5NDUgbCAzLjE0NDUgLTE5My44IGwgMC4wMDM5IC0xOTYuODIgeiIgY2xhc3M9ImxlZnQiLz4mI3hhOyAgICAgICAgPHBhdGggZD0ibSA3MDguNTkgMjUwLjk2IGMgLTAuNDMzNiAwLjIyNjYgLTAuODA4NiAwLjUzOTEgLTEuMjgxMiAwLjc2NTYgbCAtMjM5LjQ2IDExMC4yMSBjIC0yMC42OTEgOS40OTYxIC0zNy41NzQgMzUuOTE4IC0zNy41NzQgNTguNjc2IHYgMTYyLjEyIGwgMC40NzY2IC0wLjAxOTUgbCAtMC43NDYxIDIyOS44IGMgNC40Njg4IC0xLjM0MzggOC43MTA5IC0yLjkzNzUgMTIuNjIxIC00LjczODMgbCAzMTcuMTcgLTE0Ni4wMyBjIDMwLjk5MiAtMTQuMjc3IDU2LjM5OCAtNTMuODc1IDU2LjM5OCAtODguMDM1IGwgLTAuMDYyNSAtMzcyLjM5IHoiIGNsYXNzPSJyaWdodCIvPiYjeGE7ICAgIDwvZz4mI3hhOzwvc3ZnPg==;shadow=1;textShadow=1;fontFamily=Atkinson Hyperlegible;fontSource=https%3A%2F%2Ffonts.googleapis.com%2Fcss%3Ffamily%3DAtkinson%2BHyperlegible;" vertex="1" parent="1">
          <mxGeometry x="810" y="294" width="60" height="60" as="geometry" />
        </mxCell>
        <mxCell id="fAuRe4YFzYjmmBLXa14k-13" value="Consumer" style="text;html=1;align=center;verticalAlign=middle;whiteSpace=wrap;rounded=0;fontFamily=Atkinson Hyperlegible;fontSource=https%3A%2F%2Ffonts.googleapis.com%2Fcss%3Ffamily%3DAtkinson%2BHyperlegible;" vertex="1" parent="1">
          <mxGeometry x="810" y="344" width="60" height="30" as="geometry" />
        </mxCell>
        <mxCell id="CABz82fo70wp0chgf_nB-4" style="edgeStyle=orthogonalEdgeStyle;rounded=0;orthogonalLoop=1;jettySize=auto;html=1;endArrow=open;endFill=0;" edge="1" parent="1" source="fAuRe4YFzYjmmBLXa14k-16" target="CABz82fo70wp0chgf_nB-1">
          <mxGeometry relative="1" as="geometry">
            <Array as="points">
              <mxPoint x="517" y="244" />
              <mxPoint x="517" y="274" />
            </Array>
          </mxGeometry>
        </mxCell>
        <mxCell id="CABz82fo70wp0chgf_nB-10" style="edgeStyle=orthogonalEdgeStyle;rounded=0;orthogonalLoop=1;jettySize=auto;html=1;dashed=1;" edge="1" parent="1" source="fAuRe4YFzYjmmBLXa14k-16" target="fAuRe4YFzYjmmBLXa14k-4">
          <mxGeometry relative="1" as="geometry">
            <Array as="points">
              <mxPoint x="422" y="249" />
              <mxPoint x="422" y="249" />
            </Array>
          </mxGeometry>
        </mxCell>
        <mxCell id="fAuRe4YFzYjmmBLXa14k-16" value="" style="shape=image;verticalLabelPosition=bottom;labelBackgroundColor=none;verticalAlign=top;aspect=fixed;imageAspect=0;image=data:image/svg+xml,PHN2ZyB4bWxucz0iaHR0cDovL3d3dy53My5vcmcvMjAwMC9zdmciIHZpZXdCb3g9IjAgMCA4NTAgODUwIiB2ZXJzaW9uPSIxLjEiIGhlaWdodD0iODUwcHQiIHdpZHRoPSI4NTBwdCI+JiN4YTsgICAgPHN0eWxlIHR5cGU9InRleHQvY3NzIj4mI3hhOyAgICAgICAgLnRvcCB7JiN4YTsgICAgICAgIGZpbGw6IzZiNzI4MDsmI3hhOyAgICAgICAgfSYjeGE7ICAgICAgICAubGVmdCB7JiN4YTsgICAgICAgIGZpbGw6ICM0YjU1NjM7JiN4YTsgICAgICAgIH0mI3hhOyAgICAgICAgLnJpZ2h0IHsmI3hhOyAgICAgICAgZmlsbDojMWYyOTM3OyYjeGE7ICAgICAgICB9JiN4YTsmI3hhOyAgICAgICAgQG1lZGlhIChwcmVmZXJzLWNvbG9yLXNjaGVtZTogZGFyaykgeyYjeGE7ICAgICAgICAudG9wIHsmI3hhOyAgICAgICAgZmlsbDojZjlmYWZiOyYjeGE7ICAgICAgICB9JiN4YTsgICAgICAgIC5sZWZ0IHsmI3hhOyAgICAgICAgZmlsbDogI2U1ZTdlYjsmI3hhOyAgICAgICAgfSYjeGE7ICAgICAgICAucmlnaHQgeyYjeGE7ICAgICAgICBmaWxsOiAjOWNhM2FmOyYjeGE7ICAgICAgICB9JiN4YTsgICAgICAgIH0mI3hhOyAgICA8L3N0eWxlPiYjeGE7ICAgIDxnPiYjeGE7ICAgICAgICA8cGF0aCBkPSJNIDIzMCAyODAgbCAxNTcuMTggNzIuMzUyIGMgMjAuNjY4IDkuNTE1NiA1NC40OTYgOS41MTU2IDc1LjE0NSAwIGwgMTMyLjY0IC02MS4wNTUgbCAyMTcuNTMgLTEwMy43NCBjIC00LjU3NDIgLTMuNDMzNiAtOS4yNSAtNi41MTU2IC0xNC4xOTEgLTguNzczNCBsIC0zMTcuMDkgLTE0Ni4wMSBjIC0zMC45OTIgLTE0LjI3NyAtODEuNzQ2IC0xNC4yNzcgLTExMi43NiAwIGwgLTMxNy4xOSAxNDYuMDEgYyAtNS4wNzAzIDIuMzE2NCAtOS44NjcyIDUuNTIzNCAtMTQuNTQzIDkuMDYyNSB6IiBjbGFzcz0idG9wIi8+JiN4YTsgICAgICAgIDxwYXRoIGQ9Im0gNDIzLjM0IDQyMC45NiBjIDAgLTIyLjgwMSAtMTYuOTAyIC00OS4xNiAtMzcuNTc0IC01OC42OTUgbCAtMjM5LjQyIC0xMTAuMTUgYyAtMC4yMDcgLTAuMDgyIC0wLjM3MTEgLTAuMjUgLTAuNTc4MSAtMC4zNTE2IGwgLTEwOC4yNSAtNDkuODgzIHYgMzcyLjI1IGMgMCAzNC4xMzcgMjUuMzg3IDczLjczOCA1Ni4zOTggODguMDM1IGwgMzE3LjE5IDE0Ni4wMyBjIDIuODEyNSAxLjMwNDcgNS45NTcgMi4zMzk4IDkuMDYyNSAzLjM5NDUgbCAzLjE0NDUgLTE5My44IGwgMC4wMDM5IC0xOTYuODIgeiIgY2xhc3M9ImxlZnQiLz4mI3hhOyAgICAgICAgPHBhdGggZD0ibSA3MDguNTkgMjUwLjk2IGMgLTAuNDMzNiAwLjIyNjYgLTAuODA4NiAwLjUzOTEgLTEuMjgxMiAwLjc2NTYgbCAtMjM5LjQ2IDExMC4yMSBjIC0yMC42OTEgOS40OTYxIC0zNy41NzQgMzUuOTE4IC0zNy41NzQgNTguNjc2IHYgMTYyLjEyIGwgMC40NzY2IC0wLjAxOTUgbCAtMC43NDYxIDIyOS44IGMgNC40Njg4IC0xLjM0MzggOC43MTA5IC0yLjkzNzUgMTIuNjIxIC00LjczODMgbCAzMTcuMTcgLTE0Ni4wMyBjIDMwLjk5MiAtMTQuMjc3IDU2LjM5OCAtNTMuODc1IDU2LjM5OCAtODguMDM1IGwgLTAuMDYyNSAtMzcyLjM5IHoiIGNsYXNzPSJyaWdodCIvPiYjeGE7ICAgIDwvZz4mI3hhOzwvc3ZnPg==;shadow=1;textShadow=1;fontFamily=Atkinson Hyperlegible;fontSource=https%3A%2F%2Ffonts.googleapis.com%2Fcss%3Ffamily%3DAtkinson%2BHyperlegible;" vertex="1" parent="1">
          <mxGeometry x="460" y="229" width="30" height="30" as="geometry" />
        </mxCell>
        <mxCell id="CABz82fo70wp0chgf_nB-5" style="edgeStyle=orthogonalEdgeStyle;rounded=0;orthogonalLoop=1;jettySize=auto;html=1;endArrow=open;endFill=0;" edge="1" parent="1" source="fAuRe4YFzYjmmBLXa14k-19" target="CABz82fo70wp0chgf_nB-1">
          <mxGeometry relative="1" as="geometry">
            <Array as="points">
              <mxPoint x="517" y="324" />
              <mxPoint x="517" y="294" />
            </Array>
          </mxGeometry>
        </mxCell>
        <mxCell id="CABz82fo70wp0chgf_nB-11" style="edgeStyle=orthogonalEdgeStyle;rounded=0;orthogonalLoop=1;jettySize=auto;html=1;dashed=1;" edge="1" parent="1" source="fAuRe4YFzYjmmBLXa14k-19" target="fAuRe4YFzYjmmBLXa14k-7">
          <mxGeometry relative="1" as="geometry">
            <Array as="points">
              <mxPoint x="423" y="328" />
              <mxPoint x="423" y="328" />
            </Array>
          </mxGeometry>
        </mxCell>
        <mxCell id="fAuRe4YFzYjmmBLXa14k-19" value="" style="shape=image;verticalLabelPosition=bottom;labelBackgroundColor=none;verticalAlign=top;aspect=fixed;imageAspect=0;image=data:image/svg+xml,PHN2ZyB4bWxucz0iaHR0cDovL3d3dy53My5vcmcvMjAwMC9zdmciIHZpZXdCb3g9IjAgMCA4NTAgODUwIiB2ZXJzaW9uPSIxLjEiIGhlaWdodD0iODUwcHQiIHdpZHRoPSI4NTBwdCI+JiN4YTsgICAgPHN0eWxlIHR5cGU9InRleHQvY3NzIj4mI3hhOyAgICAgICAgLnRvcCB7JiN4YTsgICAgICAgIGZpbGw6IzZiNzI4MDsmI3hhOyAgICAgICAgfSYjeGE7ICAgICAgICAubGVmdCB7JiN4YTsgICAgICAgIGZpbGw6ICM0YjU1NjM7JiN4YTsgICAgICAgIH0mI3hhOyAgICAgICAgLnJpZ2h0IHsmI3hhOyAgICAgICAgZmlsbDojMWYyOTM3OyYjeGE7ICAgICAgICB9JiN4YTsmI3hhOyAgICAgICAgQG1lZGlhIChwcmVmZXJzLWNvbG9yLXNjaGVtZTogZGFyaykgeyYjeGE7ICAgICAgICAudG9wIHsmI3hhOyAgICAgICAgZmlsbDojZjlmYWZiOyYjeGE7ICAgICAgICB9JiN4YTsgICAgICAgIC5sZWZ0IHsmI3hhOyAgICAgICAgZmlsbDogI2U1ZTdlYjsmI3hhOyAgICAgICAgfSYjeGE7ICAgICAgICAucmlnaHQgeyYjeGE7ICAgICAgICBmaWxsOiAjOWNhM2FmOyYjeGE7ICAgICAgICB9JiN4YTsgICAgICAgIH0mI3hhOyAgICA8L3N0eWxlPiYjeGE7ICAgIDxnPiYjeGE7ICAgICAgICA8cGF0aCBkPSJNIDIzMCAyODAgbCAxNTcuMTggNzIuMzUyIGMgMjAuNjY4IDkuNTE1NiA1NC40OTYgOS41MTU2IDc1LjE0NSAwIGwgMTMyLjY0IC02MS4wNTUgbCAyMTcuNTMgLTEwMy43NCBjIC00LjU3NDIgLTMuNDMzNiAtOS4yNSAtNi41MTU2IC0xNC4xOTEgLTguNzczNCBsIC0zMTcuMDkgLTE0Ni4wMSBjIC0zMC45OTIgLTE0LjI3NyAtODEuNzQ2IC0xNC4yNzcgLTExMi43NiAwIGwgLTMxNy4xOSAxNDYuMDEgYyAtNS4wNzAzIDIuMzE2NCAtOS44NjcyIDUuNTIzNCAtMTQuNTQzIDkuMDYyNSB6IiBjbGFzcz0idG9wIi8+JiN4YTsgICAgICAgIDxwYXRoIGQ9Im0gNDIzLjM0IDQyMC45NiBjIDAgLTIyLjgwMSAtMTYuOTAyIC00OS4xNiAtMzcuNTc0IC01OC42OTUgbCAtMjM5LjQyIC0xMTAuMTUgYyAtMC4yMDcgLTAuMDgyIC0wLjM3MTEgLTAuMjUgLTAuNTc4MSAtMC4zNTE2IGwgLTEwOC4yNSAtNDkuODgzIHYgMzcyLjI1IGMgMCAzNC4xMzcgMjUuMzg3IDczLjczOCA1Ni4zOTggODguMDM1IGwgMzE3LjE5IDE0Ni4wMyBjIDIuODEyNSAxLjMwNDcgNS45NTcgMi4zMzk4IDkuMDYyNSAzLjM5NDUgbCAzLjE0NDUgLTE5My44IGwgMC4wMDM5IC0xOTYuODIgeiIgY2xhc3M9ImxlZnQiLz4mI3hhOyAgICAgICAgPHBhdGggZD0ibSA3MDguNTkgMjUwLjk2IGMgLTAuNDMzNiAwLjIyNjYgLTAuODA4NiAwLjUzOTEgLTEuMjgxMiAwLjc2NTYgbCAtMjM5LjQ2IDExMC4yMSBjIC0yMC42OTEgOS40OTYxIC0zNy41NzQgMzUuOTE4IC0zNy41NzQgNTguNjc2IHYgMTYyLjEyIGwgMC40NzY2IC0wLjAxOTUgbCAtMC43NDYxIDIyOS44IGMgNC40Njg4IC0xLjM0MzggOC43MTA5IC0yLjkzNzUgMTIuNjIxIC00LjczODMgbCAzMTcuMTcgLTE0Ni4wMyBjIDMwLjk5MiAtMTQuMjc3IDU2LjM5OCAtNTMuODc1IDU2LjM5OCAtODguMDM1IGwgLTAuMDYyNSAtMzcyLjM5IHoiIGNsYXNzPSJyaWdodCIvPiYjeGE7ICAgIDwvZz4mI3hhOzwvc3ZnPg==;shadow=1;textShadow=1;fontFamily=Atkinson Hyperlegible;fontSource=https%3A%2F%2Ffonts.googleapis.com%2Fcss%3Ffamily%3DAtkinson%2BHyperlegible;" vertex="1" parent="1">
          <mxGeometry x="460" y="309" width="30" height="30" as="geometry" />
        </mxCell>
        <mxCell id="CABz82fo70wp0chgf_nB-9" style="edgeStyle=orthogonalEdgeStyle;rounded=0;orthogonalLoop=1;jettySize=auto;html=1;endArrow=classic;endFill=1;" edge="1" parent="1" source="fAuRe4YFzYjmmBLXa14k-27" target="fAuRe4YFzYjmmBLXa14k-10">
          <mxGeometry relative="1" as="geometry">
            <Array as="points">
              <mxPoint x="773" y="238" />
              <mxPoint x="773" y="238" />
            </Array>
          </mxGeometry>
        </mxCell>
        <mxCell id="fAuRe4YFzYjmmBLXa14k-27" value="" style="shape=image;verticalLabelPosition=bottom;labelBackgroundColor=none;verticalAlign=top;aspect=fixed;imageAspect=0;image=data:image/svg+xml,PHN2ZyB4bWxucz0iaHR0cDovL3d3dy53My5vcmcvMjAwMC9zdmciIHZpZXdCb3g9IjAgMCA4NTAgODUwIiB2ZXJzaW9uPSIxLjEiIGhlaWdodD0iODUwcHQiIHdpZHRoPSI4NTBwdCI+JiN4YTsgICAgPHN0eWxlIHR5cGU9InRleHQvY3NzIj4mI3hhOyAgICAgICAgLnRvcCB7JiN4YTsgICAgICAgIGZpbGw6IzZiNzI4MDsmI3hhOyAgICAgICAgfSYjeGE7ICAgICAgICAubGVmdCB7JiN4YTsgICAgICAgIGZpbGw6ICM0YjU1NjM7JiN4YTsgICAgICAgIH0mI3hhOyAgICAgICAgLnJpZ2h0IHsmI3hhOyAgICAgICAgZmlsbDojMWYyOTM3OyYjeGE7ICAgICAgICB9JiN4YTsmI3hhOyAgICAgICAgQG1lZGlhIChwcmVmZXJzLWNvbG9yLXNjaGVtZTogZGFyaykgeyYjeGE7ICAgICAgICAudG9wIHsmI3hhOyAgICAgICAgZmlsbDojZjlmYWZiOyYjeGE7ICAgICAgICB9JiN4YTsgICAgICAgIC5sZWZ0IHsmI3hhOyAgICAgICAgZmlsbDogI2U1ZTdlYjsmI3hhOyAgICAgICAgfSYjeGE7ICAgICAgICAucmlnaHQgeyYjeGE7ICAgICAgICBmaWxsOiAjOWNhM2FmOyYjeGE7ICAgICAgICB9JiN4YTsgICAgICAgIH0mI3hhOyAgICA8L3N0eWxlPiYjeGE7ICAgIDxnPiYjeGE7ICAgICAgICA8cGF0aCBkPSJNIDIzMCAyODAgbCAxNTcuMTggNzIuMzUyIGMgMjAuNjY4IDkuNTE1NiA1NC40OTYgOS41MTU2IDc1LjE0NSAwIGwgMTMyLjY0IC02MS4wNTUgbCAyMTcuNTMgLTEwMy43NCBjIC00LjU3NDIgLTMuNDMzNiAtOS4yNSAtNi41MTU2IC0xNC4xOTEgLTguNzczNCBsIC0zMTcuMDkgLTE0Ni4wMSBjIC0zMC45OTIgLTE0LjI3NyAtODEuNzQ2IC0xNC4yNzcgLTExMi43NiAwIGwgLTMxNy4xOSAxNDYuMDEgYyAtNS4wNzAzIDIuMzE2NCAtOS44NjcyIDUuNTIzNCAtMTQuNTQzIDkuMDYyNSB6IiBjbGFzcz0idG9wIi8+JiN4YTsgICAgICAgIDxwYXRoIGQ9Im0gNDIzLjM0IDQyMC45NiBjIDAgLTIyLjgwMSAtMTYuOTAyIC00OS4xNiAtMzcuNTc0IC01OC42OTUgbCAtMjM5LjQyIC0xMTAuMTUgYyAtMC4yMDcgLTAuMDgyIC0wLjM3MTEgLTAuMjUgLTAuNTc4MSAtMC4zNTE2IGwgLTEwOC4yNSAtNDkuODgzIHYgMzcyLjI1IGMgMCAzNC4xMzcgMjUuMzg3IDczLjczOCA1Ni4zOTggODguMDM1IGwgMzE3LjE5IDE0Ni4wMyBjIDIuODEyNSAxLjMwNDcgNS45NTcgMi4zMzk4IDkuMDYyNSAzLjM5NDUgbCAzLjE0NDUgLTE5My44IGwgMC4wMDM5IC0xOTYuODIgeiIgY2xhc3M9ImxlZnQiLz4mI3hhOyAgICAgICAgPHBhdGggZD0ibSA3MDguNTkgMjUwLjk2IGMgLTAuNDMzNiAwLjIyNjYgLTAuODA4NiAwLjUzOTEgLTEuMjgxMiAwLjc2NTYgbCAtMjM5LjQ2IDExMC4yMSBjIC0yMC42OTEgOS40OTYxIC0zNy41NzQgMzUuOTE4IC0zNy41NzQgNTguNjc2IHYgMTYyLjEyIGwgMC40NzY2IC0wLjAxOTUgbCAtMC43NDYxIDIyOS44IGMgNC40Njg4IC0xLjM0MzggOC43MTA5IC0yLjkzNzUgMTIuNjIxIC00LjczODMgbCAzMTcuMTcgLTE0Ni4wMyBjIDMwLjk5MiAtMTQuMjc3IDU2LjM5OCAtNTMuODc1IDU2LjM5OCAtODguMDM1IGwgLTAuMDYyNSAtMzcyLjM5IHoiIGNsYXNzPSJyaWdodCIvPiYjeGE7ICAgIDwvZz4mI3hhOzwvc3ZnPg==;shadow=1;textShadow=1;fontFamily=Atkinson Hyperlegible;fontSource=https%3A%2F%2Ffonts.googleapis.com%2Fcss%3Ffamily%3DAtkinson%2BHyperlegible;" vertex="1" parent="1">
          <mxGeometry x="700" y="229" width="30" height="30" as="geometry" />
        </mxCell>
        <mxCell id="CABz82fo70wp0chgf_nB-8" style="edgeStyle=orthogonalEdgeStyle;rounded=0;orthogonalLoop=1;jettySize=auto;html=1;endArrow=classic;endFill=1;" edge="1" parent="1" source="fAuRe4YFzYjmmBLXa14k-30" target="fAuRe4YFzYjmmBLXa14k-12">
          <mxGeometry relative="1" as="geometry">
            <Array as="points">
              <mxPoint x="779" y="317" />
              <mxPoint x="779" y="317" />
            </Array>
          </mxGeometry>
        </mxCell>
        <mxCell id="fAuRe4YFzYjmmBLXa14k-30" value="" style="shape=image;verticalLabelPosition=bottom;labelBackgroundColor=none;verticalAlign=top;aspect=fixed;imageAspect=0;image=data:image/svg+xml,PHN2ZyB4bWxucz0iaHR0cDovL3d3dy53My5vcmcvMjAwMC9zdmciIHZpZXdCb3g9IjAgMCA4NTAgODUwIiB2ZXJzaW9uPSIxLjEiIGhlaWdodD0iODUwcHQiIHdpZHRoPSI4NTBwdCI+JiN4YTsgICAgPHN0eWxlIHR5cGU9InRleHQvY3NzIj4mI3hhOyAgICAgICAgLnRvcCB7JiN4YTsgICAgICAgIGZpbGw6IzZiNzI4MDsmI3hhOyAgICAgICAgfSYjeGE7ICAgICAgICAubGVmdCB7JiN4YTsgICAgICAgIGZpbGw6ICM0YjU1NjM7JiN4YTsgICAgICAgIH0mI3hhOyAgICAgICAgLnJpZ2h0IHsmI3hhOyAgICAgICAgZmlsbDojMWYyOTM3OyYjeGE7ICAgICAgICB9JiN4YTsmI3hhOyAgICAgICAgQG1lZGlhIChwcmVmZXJzLWNvbG9yLXNjaGVtZTogZGFyaykgeyYjeGE7ICAgICAgICAudG9wIHsmI3hhOyAgICAgICAgZmlsbDojZjlmYWZiOyYjeGE7ICAgICAgICB9JiN4YTsgICAgICAgIC5sZWZ0IHsmI3hhOyAgICAgICAgZmlsbDogI2U1ZTdlYjsmI3hhOyAgICAgICAgfSYjeGE7ICAgICAgICAucmlnaHQgeyYjeGE7ICAgICAgICBmaWxsOiAjOWNhM2FmOyYjeGE7ICAgICAgICB9JiN4YTsgICAgICAgIH0mI3hhOyAgICA8L3N0eWxlPiYjeGE7ICAgIDxnPiYjeGE7ICAgICAgICA8cGF0aCBkPSJNIDIzMCAyODAgbCAxNTcuMTggNzIuMzUyIGMgMjAuNjY4IDkuNTE1NiA1NC40OTYgOS41MTU2IDc1LjE0NSAwIGwgMTMyLjY0IC02MS4wNTUgbCAyMTcuNTMgLTEwMy43NCBjIC00LjU3NDIgLTMuNDMzNiAtOS4yNSAtNi41MTU2IC0xNC4xOTEgLTguNzczNCBsIC0zMTcuMDkgLTE0Ni4wMSBjIC0zMC45OTIgLTE0LjI3NyAtODEuNzQ2IC0xNC4yNzcgLTExMi43NiAwIGwgLTMxNy4xOSAxNDYuMDEgYyAtNS4wNzAzIDIuMzE2NCAtOS44NjcyIDUuNTIzNCAtMTQuNTQzIDkuMDYyNSB6IiBjbGFzcz0idG9wIi8+JiN4YTsgICAgICAgIDxwYXRoIGQ9Im0gNDIzLjM0IDQyMC45NiBjIDAgLTIyLjgwMSAtMTYuOTAyIC00OS4xNiAtMzcuNTc0IC01OC42OTUgbCAtMjM5LjQyIC0xMTAuMTUgYyAtMC4yMDcgLTAuMDgyIC0wLjM3MTEgLTAuMjUgLTAuNTc4MSAtMC4zNTE2IGwgLTEwOC4yNSAtNDkuODgzIHYgMzcyLjI1IGMgMCAzNC4xMzcgMjUuMzg3IDczLjczOCA1Ni4zOTggODguMDM1IGwgMzE3LjE5IDE0Ni4wMyBjIDIuODEyNSAxLjMwNDcgNS45NTcgMi4zMzk4IDkuMDYyNSAzLjM5NDUgbCAzLjE0NDUgLTE5My44IGwgMC4wMDM5IC0xOTYuODIgeiIgY2xhc3M9ImxlZnQiLz4mI3hhOyAgICAgICAgPHBhdGggZD0ibSA3MDguNTkgMjUwLjk2IGMgLTAuNDMzNiAwLjIyNjYgLTAuODA4NiAwLjUzOTEgLTEuMjgxMiAwLjc2NTYgbCAtMjM5LjQ2IDExMC4yMSBjIC0yMC42OTEgOS40OTYxIC0zNy41NzQgMzUuOTE4IC0zNy41NzQgNTguNjc2IHYgMTYyLjEyIGwgMC40NzY2IC0wLjAxOTUgbCAtMC43NDYxIDIyOS44IGMgNC40Njg4IC0xLjM0MzggOC43MTA5IC0yLjkzNzUgMTIuNjIxIC00LjczODMgbCAzMTcuMTcgLTE0Ni4wMyBjIDMwLjk5MiAtMTQuMjc3IDU2LjM5OCAtNTMuODc1IDU2LjM5OCAtODguMDM1IGwgLTAuMDYyNSAtMzcyLjM5IHoiIGNsYXNzPSJyaWdodCIvPiYjeGE7ICAgIDwvZz4mI3hhOzwvc3ZnPg==;shadow=1;textShadow=1;fontFamily=Atkinson Hyperlegible;fontSource=https%3A%2F%2Ffonts.googleapis.com%2Fcss%3Ffamily%3DAtkinson%2BHyperlegible;" vertex="1" parent="1">
          <mxGeometry x="700" y="309" width="30" height="30" as="geometry" />
        </mxCell>
        <mxCell id="CABz82fo70wp0chgf_nB-6" style="edgeStyle=orthogonalEdgeStyle;rounded=0;orthogonalLoop=1;jettySize=auto;html=1;endArrow=open;endFill=0;" edge="1" parent="1" source="CABz82fo70wp0chgf_nB-1" target="fAuRe4YFzYjmmBLXa14k-27">
          <mxGeometry relative="1" as="geometry">
            <Array as="points">
              <mxPoint x="673" y="274" />
              <mxPoint x="673" y="244" />
            </Array>
          </mxGeometry>
        </mxCell>
        <mxCell id="CABz82fo70wp0chgf_nB-7" style="edgeStyle=orthogonalEdgeStyle;rounded=0;orthogonalLoop=1;jettySize=auto;html=1;endArrow=open;endFill=0;" edge="1" parent="1" source="CABz82fo70wp0chgf_nB-1" target="fAuRe4YFzYjmmBLXa14k-30">
          <mxGeometry relative="1" as="geometry">
            <Array as="points">
              <mxPoint x="673" y="294" />
              <mxPoint x="673" y="324" />
            </Array>
          </mxGeometry>
        </mxCell>
        <mxCell id="CABz82fo70wp0chgf_nB-1" value="Message Broker" style="shape=image;verticalLabelPosition=bottom;labelBackgroundColor=none;verticalAlign=top;aspect=fixed;imageAspect=0;image=data:image/svg+xml,PHN2ZyB4bWxucz0iaHR0cDovL3d3dy53My5vcmcvMjAwMC9zdmciIHZpZXdCb3g9IjAgMCA2NjAgMzUwIiB2ZXJzaW9uPSIxLjEiIGhlaWdodD0iMzUwcHQiIHdpZHRoPSI2NjBwdCI+JiN4YTsgICAgPGRlZnM+JiN4YTsgICAgICAgIDxsaW5lYXJHcmFkaWVudCB5Mj0iMSIgeTE9IjAiIHgyPSIwIiB4MT0iMCIgaWQ9IkdyYWRpZW50Q2xvdWQiPiYjeGE7ICAgICAgICAgICAgPHN0b3Agb2Zmc2V0PSIwJSIgc3RvcC1jb2xvcj0iIzZiNzI4MCIvPiYjeGE7ICAgICAgICAgICAgPHN0b3Agb2Zmc2V0PSIxMDAlIiBzdG9wLWNvbG9yPSIjNGI1NTYzIi8+JiN4YTsgICAgICAgIDwvbGluZWFyR3JhZGllbnQ+JiN4YTsgICAgICAgIDxsaW5lYXJHcmFkaWVudCB5Mj0iMSIgeTE9IjAiIHgyPSIwIiB4MT0iMCIgaWQ9IkdyYWRpZW50Q2xvdWREYXJrIj4mI3hhOyAgICAgICAgICAgIDxzdG9wIG9mZnNldD0iMCUiIHN0b3AtY29sb3I9IiNlNWU3ZWIiLz4mI3hhOyAgICAgICAgICAgIDxzdG9wIG9mZnNldD0iMTAwJSIgc3RvcC1jb2xvcj0iI2QxZDVkYiIvPiYjeGE7ICAgICAgICA8L2xpbmVhckdyYWRpZW50PiYjeGE7ICAgICAgICA8c3R5bGUgdHlwZT0idGV4dC9jc3MiPiYjeGE7ICAgICAgICAgICAgLmNsb3VkIHsmI3hhOyAgICAgICAgICAgIGZpbGw6dXJsKCNHcmFkaWVudENsb3VkKTsmI3hhOyAgICAgICAgICAgIHN0cm9rZTogIzM3NDE1MTsmI3hhOyAgICAgICAgICAgIHN0cm9rZS13aWR0aDogNDsmI3hhOyAgICAgICAgICAgIH0mI3hhOyAgICAgICAgICAgIC5lbnZlbG9wZSB7JiN4YTsgICAgICAgICAgICBmaWxsOiAjZTVlN2ViOyYjeGE7ICAgICAgICAgICAgc3Ryb2tlOiAjMzc0MTUxOyYjeGE7ICAgICAgICAgICAgc3Ryb2tlLXdpZHRoOiA0OyYjeGE7ICAgICAgICAgICAgfSYjeGE7JiN4YTsgICAgICAgICAgICBAbWVkaWEgKHByZWZlcnMtY29sb3Itc2NoZW1lOiBkYXJrKSB7JiN4YTsgICAgICAgICAgICAuY2xvdWQgeyYjeGE7ICAgICAgICAgICAgZmlsbDp1cmwoI0dyYWRpZW50Q2xvdWREYXJrKTsmI3hhOyAgICAgICAgICAgIHN0cm9rZTogIzZiNzI4MDsmI3hhOyAgICAgICAgICAgIHN0cm9rZS13aWR0aDogNDsmI3hhOyAgICAgICAgICAgIH0mI3hhOyAgICAgICAgICAgIC5lbnZlbG9wZSB7JiN4YTsgICAgICAgICAgICBmaWxsOiAjZjlmYWZiOyYjeGE7ICAgICAgICAgICAgc3Ryb2tlOiAjMzc0MTUxOyYjeGE7ICAgICAgICAgICAgc3Ryb2tlLXdpZHRoOiA0OyYjeGE7ICAgICAgICAgICAgfSYjeGE7ICAgICAgICAgICAgfSYjeGE7ICAgICAgICA8L3N0eWxlPiYjeGE7ICAgIDwvZGVmcz4mI3hhOyAgICA8Zz4mI3hhOyAgICAgICAgPHBhdGggZD0ibSA1OTIgMjcyIEwgMTI1IDI3MyBDIDE3IDI3MCAxNCAxMTkgMTM0IDEyMCBDIDE2NSAtMjkgMzg5IC04IDQyNSA4NCBDIDU2MCAzNiA2NTIgMTUyIDU5MiAyNzIgeiIgY2xhc3M9ImNsb3VkIi8+JiN4YTsgICAgICAgIDxwYXRoIGQ9Im0gNDQzLjgzNiAzMTguOTkgQyA0NTcuMTQ2IDMxOC45OSA0NzAuNDU2IDMwNS42OCA0NzAuNDU2IDI5Mi4zNyBMIDQ3MC40NTYgMTg0LjU1OSBDIDQ3MC40NTYgMTcxLjI0OSA0NTguNDc3IDE1Ny45MzkgNDQ1LjE2NyAxNTcuOTM5IEwgMjAyLjkyNSAxNTcuOTM5IEMgMTg5LjYxNSAxNTcuOTM5IDE3Ny42MzYgMTcyLjU4IDE3Ny42MzYgMTg1Ljg5IEwgMTc3LjYzNiAyOTIuMzcgQyAxNzcuNjM2IDMxMS4wMDQgMTg5LjYxNSAzMTguOTkgMjA5LjU4IDMxOC45OSBMIDQ0My44MzYgMzE4Ljk5IE0gMTg0LjI5MSAxNjguNTg3IEwgMjgyLjc4NSAyMjEuODI3IEMgMzIyLjcxNSAyNDEuNzkyIDMyMi43MTUgMjQxLjc5MiAzNjIuNjQ1IDIyMS44MjcgTCA0NjMuODAxIDE2OC41ODcgTSAyODIuNzg1IDIyMS44MjcgTCAxODQuMjkxIDMxMS4wMDQgTSAzNjIuNjQ1IDIyMS44MjcgTCA0NjEuMTM5IDMxMS4wMDQgeiIgY2xhc3M9ImVudmVsb3BlIi8+JiN4YTsgICAgICAgICYjeGE7ICAgICAgICAmI3hhOyAgICA8L2c+JiN4YTs8L3N2Zz4=;fontFamily=Atkinson Hyperlegible;fontSource=https%3A%2F%2Ffonts.googleapis.com%2Fcss%3Ffamily%3DAtkinson%2BHyperlegible;shadow=1;textShadow=1;" vertex="1" parent="1">
          <mxGeometry x="543.14" y="259" width="103.72" height="55" as="geometry" />
        </mxCell>
      </root>
    </mxGraphModel>
  </diagram>
  <diagram id="5b-VHUHLRtbrzweXuTb5" name="Page-4">
    <mxGraphModel dx="2074" dy="1106" grid="1" gridSize="10" guides="1" tooltips="1" connect="1" arrows="1" fold="1" page="1" pageScale="1" pageWidth="850" pageHeight="1100" math="0" shadow="0">
      <root>
        <mxCell id="0" />
        <mxCell id="1" parent="0" />
        <mxCell id="pFRBrZHWGn7I3bf-9Eg4-3" style="edgeStyle=orthogonalEdgeStyle;rounded=0;orthogonalLoop=1;jettySize=auto;html=1;" parent="1" source="pFRBrZHWGn7I3bf-9Eg4-1" target="pFRBrZHWGn7I3bf-9Eg4-2" edge="1">
          <mxGeometry relative="1" as="geometry" />
        </mxCell>
        <mxCell id="pFRBrZHWGn7I3bf-9Eg4-1" value="" style="shape=image;verticalLabelPosition=bottom;labelBackgroundColor=default;verticalAlign=top;aspect=fixed;imageAspect=0;image=data:image/svg+xml,PHN2ZyB4bWxucz0iaHR0cDovL3d3dy53My5vcmcvMjAwMC9zdmciIHZpZXdCb3g9IjAgMCA4NTAgODUwIiB2ZXJzaW9uPSIxLjEiIGhlaWdodD0iODUwcHQiIHdpZHRoPSI4NTBwdCI+JiN4YTsgICAgPHN0eWxlIHR5cGU9InRleHQvY3NzIj4mI3hhOyAgICAgICAgLnRvcCB7JiN4YTsgICAgICAgIGZpbGw6IzZiNzI4MDsmI3hhOyAgICAgICAgc3Ryb2tlOiBibGFjazsmI3hhOyAgICAgICAgc3Ryb2tlLXdpZHRoOiAyOyYjeGE7ICAgICAgICB9JiN4YTsgICAgICAgIC5sZWZ0IHsmI3hhOyAgICAgICAgZmlsbDogIzRiNTU2MzsmI3hhOyAgICAgICAgc3Ryb2tlOiBibGFjazsmI3hhOyAgICAgICAgc3Ryb2tlLXdpZHRoOiAyOyYjeGE7ICAgICAgICB9JiN4YTsgICAgICAgIC5yaWdodCB7JiN4YTsgICAgICAgIGZpbGw6IzFmMjkzNzsmI3hhOyAgICAgICAgc3Ryb2tlOiBibGFjazsmI3hhOyAgICAgICAgc3Ryb2tlLXdpZHRoOiAyOyYjeGE7ICAgICAgICB9JiN4YTsmI3hhOyAgICAgICAgQG1lZGlhIChwcmVmZXJzLWNvbG9yLXNjaGVtZTogZGFyaykgeyYjeGE7ICAgICAgICAudG9wIHsmI3hhOyAgICAgICAgZmlsbDojZjlmYWZiOyYjeGE7ICAgICAgICBzdHJva2U6IHdoaXRlOyYjeGE7ICAgICAgICBzdHJva2Utd2lkdGg6IDI7JiN4YTsgICAgICAgIH0mI3hhOyAgICAgICAgLmxlZnQgeyYjeGE7ICAgICAgICBmaWxsOiAjZTVlN2ViOyYjeGE7ICAgICAgICBzdHJva2U6IHdoaXRlOyYjeGE7ICAgICAgICBzdHJva2Utd2lkdGg6IDI7JiN4YTsgICAgICAgIH0mI3hhOyAgICAgICAgLnJpZ2h0IHsmI3hhOyAgICAgICAgZmlsbDogIzljYTNhZjsmI3hhOyAgICAgICAgc3Ryb2tlOiB3aGl0ZTsmI3hhOyAgICAgICAgc3Ryb2tlLXdpZHRoOiAyOyYjeGE7ICAgICAgICB9JiN4YTsgICAgICAgIH0mI3hhOyAgICA8L3N0eWxlPiYjeGE7ICAgIDxnPiYjeGE7ICAgICAgICA8cGF0aCBkPSJNIDIzMCAyODAgbCAxNTcuMTggNzIuMzUyIGMgMjAuNjY4IDkuNTE1NiA1NC40OTYgOS41MTU2IDc1LjE0NSAwIGwgMTMyLjY0IC02MS4wNTUgbCAyMTcuNTMgLTEwMy43NCBjIC00LjU3NDIgLTMuNDMzNiAtOS4yNSAtNi41MTU2IC0xNC4xOTEgLTguNzczNCBsIC0zMTcuMDkgLTE0Ni4wMSBjIC0zMC45OTIgLTE0LjI3NyAtODEuNzQ2IC0xNC4yNzcgLTExMi43NiAwIGwgLTMxNy4xOSAxNDYuMDEgYyAtNS4wNzAzIDIuMzE2NCAtOS44NjcyIDUuNTIzNCAtMTQuNTQzIDkuMDYyNSB6IiBjbGFzcz0idG9wIi8+JiN4YTsgICAgICAgIDxwYXRoIGQ9Im0gNDIzLjM0IDQyMC45NiBjIDAgLTIyLjgwMSAtMTYuOTAyIC00OS4xNiAtMzcuNTc0IC01OC42OTUgbCAtMjM5LjQyIC0xMTAuMTUgYyAtMC4yMDcgLTAuMDgyIC0wLjM3MTEgLTAuMjUgLTAuNTc4MSAtMC4zNTE2IGwgLTEwOC4yNSAtNDkuODgzIHYgMzcyLjI1IGMgMCAzNC4xMzcgMjUuMzg3IDczLjczOCA1Ni4zOTggODguMDM1IGwgMzE3LjE5IDE0Ni4wMyBjIDIuODEyNSAxLjMwNDcgNS45NTcgMi4zMzk4IDkuMDYyNSAzLjM5NDUgbCAzLjE0NDUgLTE5My44IGwgMC4wMDM5IC0xOTYuODIgeiIgY2xhc3M9ImxlZnQiLz4mI3hhOyAgICAgICAgPHBhdGggZD0ibSA3MDguNTkgMjUwLjk2IGMgLTAuNDMzNiAwLjIyNjYgLTAuODA4NiAwLjUzOTEgLTEuMjgxMiAwLjc2NTYgbCAtMjM5LjQ2IDExMC4yMSBjIC0yMC42OTEgOS40OTYxIC0zNy41NzQgMzUuOTE4IC0zNy41NzQgNTguNjc2IHYgMTYyLjEyIGwgMC40NzY2IC0wLjAxOTUgbCAtMC43NDYxIDIyOS44IGMgNC40Njg4IC0xLjM0MzggOC43MTA5IC0yLjkzNzUgMTIuNjIxIC00LjczODMgbCAzMTcuMTcgLTE0Ni4wMyBjIDMwLjk5MiAtMTQuMjc3IDU2LjM5OCAtNTMuODc1IDU2LjM5OCAtODguMDM1IGwgLTAuMDYyNSAtMzcyLjM5IHoiIGNsYXNzPSJyaWdodCIvPiYjeGE7ICAgIDwvZz4mI3hhOzwvc3ZnPg==;shadow=1;textShadow=1;" parent="1" vertex="1">
          <mxGeometry x="150" y="120" width="140" height="140" as="geometry" />
        </mxCell>
        <mxCell id="pFRBrZHWGn7I3bf-9Eg4-2" value="" style="shape=image;verticalLabelPosition=bottom;labelBackgroundColor=default;verticalAlign=top;aspect=fixed;imageAspect=0;image=data:image/svg+xml,PHN2ZyB4bWxucz0iaHR0cDovL3d3dy53My5vcmcvMjAwMC9zdmciIHZpZXdCb3g9IjAgMCA4NTAgODUwIiB2ZXJzaW9uPSIxLjEiIGhlaWdodD0iODUwcHQiIHdpZHRoPSI4NTBwdCI+JiN4YTsgICAgPHN0eWxlIHR5cGU9InRleHQvY3NzIj4mI3hhOyAgICAgICAgLnRvcCB7JiN4YTsgICAgICAgIGZpbGw6IzZiNzI4MDsmI3hhOyAgICAgICAgc3Ryb2tlOiBibGFjazsmI3hhOyAgICAgICAgc3Ryb2tlLXdpZHRoOiAyOyYjeGE7ICAgICAgICB9JiN4YTsgICAgICAgIC5sZWZ0IHsmI3hhOyAgICAgICAgZmlsbDogIzRiNTU2MzsmI3hhOyAgICAgICAgc3Ryb2tlOiBibGFjazsmI3hhOyAgICAgICAgc3Ryb2tlLXdpZHRoOiAyOyYjeGE7ICAgICAgICB9JiN4YTsgICAgICAgIC5yaWdodCB7JiN4YTsgICAgICAgIGZpbGw6IzFmMjkzNzsmI3hhOyAgICAgICAgc3Ryb2tlOiBibGFjazsmI3hhOyAgICAgICAgc3Ryb2tlLXdpZHRoOiAyOyYjeGE7ICAgICAgICB9JiN4YTsmI3hhOyAgICAgICAgQG1lZGlhIChwcmVmZXJzLWNvbG9yLXNjaGVtZTogZGFyaykgeyYjeGE7ICAgICAgICAudG9wIHsmI3hhOyAgICAgICAgZmlsbDojZjlmYWZiOyYjeGE7ICAgICAgICBzdHJva2U6IHdoaXRlOyYjeGE7ICAgICAgICBzdHJva2Utd2lkdGg6IDI7JiN4YTsgICAgICAgIH0mI3hhOyAgICAgICAgLmxlZnQgeyYjeGE7ICAgICAgICBmaWxsOiAjZTVlN2ViOyYjeGE7ICAgICAgICBzdHJva2U6IHdoaXRlOyYjeGE7ICAgICAgICBzdHJva2Utd2lkdGg6IDI7JiN4YTsgICAgICAgIH0mI3hhOyAgICAgICAgLnJpZ2h0IHsmI3hhOyAgICAgICAgZmlsbDogIzljYTNhZjsmI3hhOyAgICAgICAgc3Ryb2tlOiB3aGl0ZTsmI3hhOyAgICAgICAgc3Ryb2tlLXdpZHRoOiAyOyYjeGE7ICAgICAgICB9JiN4YTsgICAgICAgIH0mI3hhOyAgICA8L3N0eWxlPiYjeGE7ICAgIDxnPiYjeGE7ICAgICAgICA8cGF0aCBkPSJNIDIzMCAyODAgbCAxNTcuMTggNzIuMzUyIGMgMjAuNjY4IDkuNTE1NiA1NC40OTYgOS41MTU2IDc1LjE0NSAwIGwgMTMyLjY0IC02MS4wNTUgbCAyMTcuNTMgLTEwMy43NCBjIC00LjU3NDIgLTMuNDMzNiAtOS4yNSAtNi41MTU2IC0xNC4xOTEgLTguNzczNCBsIC0zMTcuMDkgLTE0Ni4wMSBjIC0zMC45OTIgLTE0LjI3NyAtODEuNzQ2IC0xNC4yNzcgLTExMi43NiAwIGwgLTMxNy4xOSAxNDYuMDEgYyAtNS4wNzAzIDIuMzE2NCAtOS44NjcyIDUuNTIzNCAtMTQuNTQzIDkuMDYyNSB6IiBjbGFzcz0idG9wIi8+JiN4YTsgICAgICAgIDxwYXRoIGQ9Im0gNDIzLjM0IDQyMC45NiBjIDAgLTIyLjgwMSAtMTYuOTAyIC00OS4xNiAtMzcuNTc0IC01OC42OTUgbCAtMjM5LjQyIC0xMTAuMTUgYyAtMC4yMDcgLTAuMDgyIC0wLjM3MTEgLTAuMjUgLTAuNTc4MSAtMC4zNTE2IGwgLTEwOC4yNSAtNDkuODgzIHYgMzcyLjI1IGMgMCAzNC4xMzcgMjUuMzg3IDczLjczOCA1Ni4zOTggODguMDM1IGwgMzE3LjE5IDE0Ni4wMyBjIDIuODEyNSAxLjMwNDcgNS45NTcgMi4zMzk4IDkuMDYyNSAzLjM5NDUgbCAzLjE0NDUgLTE5My44IGwgMC4wMDM5IC0xOTYuODIgeiIgY2xhc3M9ImxlZnQiLz4mI3hhOyAgICAgICAgPHBhdGggZD0ibSA3MDguNTkgMjUwLjk2IGMgLTAuNDMzNiAwLjIyNjYgLTAuODA4NiAwLjUzOTEgLTEuMjgxMiAwLjc2NTYgbCAtMjM5LjQ2IDExMC4yMSBjIC0yMC42OTEgOS40OTYxIC0zNy41NzQgMzUuOTE4IC0zNy41NzQgNTguNjc2IHYgMTYyLjEyIGwgMC40NzY2IC0wLjAxOTUgbCAtMC43NDYxIDIyOS44IGMgNC40Njg4IC0xLjM0MzggOC43MTA5IC0yLjkzNzUgMTIuNjIxIC00LjczODMgbCAzMTcuMTcgLTE0Ni4wMyBjIDMwLjk5MiAtMTQuMjc3IDU2LjM5OCAtNTMuODc1IDU2LjM5OCAtODguMDM1IGwgLTAuMDYyNSAtMzcyLjM5IHoiIGNsYXNzPSJyaWdodCIvPiYjeGE7ICAgIDwvZz4mI3hhOzwvc3ZnPg==;shadow=1;textShadow=1;" parent="1" vertex="1">
          <mxGeometry x="520" y="120" width="140" height="140" as="geometry" />
        </mxCell>
      </root>
    </mxGraphModel>
  </diagram>
</mxfile>
